<?xml version="1.0" encoding="UTF-8"?>
<svg xmlns="http://www.w3.org/2000/svg" xmlns:xlink="http://www.w3.org/1999/xlink" width="50pt" height="50pt" viewBox="0 0 50 50" version="1.1">
<g id="surface1">
<path style=" stroke:none;fill-rule:nonzero;fill:rgb(97.254902%,92.156863%,78.431373%);fill-opacity:1;" d="M 44.753906 20.707031 C 40.789062 19.003906 33.710938 19.585938 29.0625 20.992188 C 28.808594 21.070312 28.609375 21.257812 28.511719 21.5 L 26.785156 25.808594 C 26.6875 26.058594 26.707031 26.34375 26.847656 26.574219 L 32.222656 35.515625 C 32.261719 35.578125 32.308594 35.636719 32.363281 35.691406 C 33.964844 37.234375 35.5 38.324219 36.929688 38.9375 C 37.984375 39.390625 39.089844 39.605469 40.195312 39.605469 C 43.851562 39.605469 47.464844 37.238281 49.125 33.378906 C 51.28125 28.351562 49.320312 22.667969 44.753906 20.707031 Z M 44.753906 20.707031 "/>
<path style=" stroke:none;fill-rule:nonzero;fill:rgb(100%,96.078431%,86.27451%);fill-opacity:1;" d="M 28.242188 25.570312 C 28.078125 25.378906 27.839844 25.269531 27.585938 25.269531 L 23.277344 25.269531 C 22.992188 25.269531 22.726562 25.40625 22.566406 25.640625 L 16.460938 34.46875 C 16.425781 34.523438 16.390625 34.585938 16.367188 34.648438 C 15.511719 36.839844 15.082031 38.773438 15.082031 40.394531 C 15.082031 45.363281 19.53125 49.410156 25 49.410156 C 30.46875 49.410156 34.917969 45.363281 34.917969 40.394531 C 34.917969 36.1875 31.464844 29.332031 28.242188 25.570312 Z M 28.242188 25.570312 "/>
<path style=" stroke:none;fill-rule:nonzero;fill:rgb(97.254902%,92.156863%,78.431373%);fill-opacity:1;" d="M 24.105469 26.757812 L 22.675781 21.6875 C 22.585938 21.367188 22.320312 21.128906 21.996094 21.070312 L 13.992188 19.667969 C 13.957031 19.664062 13.925781 19.660156 13.890625 19.660156 L 13.605469 19.644531 C 10.082031 19.480469 7.269531 19.839844 5.246094 20.707031 C 0.679688 22.667969 -1.28125 28.351562 0.875 33.378906 C 2.535156 37.238281 6.148438 39.605469 9.804688 39.605469 C 10.90625 39.605469 12.015625 39.390625 13.070312 38.9375 C 17.214844 37.160156 21.890625 31.078125 24.019531 27.425781 C 24.136719 27.222656 24.167969 26.984375 24.105469 26.757812 Z M 24.105469 26.757812 "/>
<path style=" stroke:none;fill-rule:nonzero;fill:rgb(100%,96.078431%,86.27451%);fill-opacity:1;" d="M 45.707031 9.644531 C 45.375 7.152344 44.085938 4.839844 42.082031 3.132812 C 37.917969 -0.417969 31.910156 -0.226562 28.6875 3.558594 C 25.976562 6.742188 24.152344 13.789062 24.152344 18.371094 C 24.152344 18.625 24.265625 18.867188 24.460938 19.03125 L 29.621094 23.34375 C 29.777344 23.472656 29.972656 23.542969 30.171875 23.542969 C 30.277344 23.542969 30.378906 23.523438 30.476562 23.488281 L 36.265625 21.304688 C 38.664062 20.292969 41.914062 18.625 43.789062 16.425781 C 45.359375 14.578125 46.042969 12.171875 45.707031 9.644531 Z M 45.707031 9.644531 "/>
<path style=" stroke:none;fill-rule:nonzero;fill:rgb(100%,96.078431%,86.27451%);fill-opacity:1;" d="M 21.050781 3.558594 C 17.828125 -0.222656 11.816406 -0.417969 7.65625 3.132812 C 5.652344 4.839844 4.367188 7.152344 4.03125 9.644531 C 3.695312 12.171875 4.378906 14.578125 5.949219 16.425781 C 8.648438 19.589844 14.578125 22.035156 19.234375 23.265625 C 19.472656 23.328125 19.703125 23.386719 19.933594 23.445312 C 20 23.460938 20.070312 23.46875 20.140625 23.46875 C 20.3125 23.46875 20.484375 23.414062 20.632812 23.316406 L 25.492188 19.941406 C 25.722656 19.78125 25.863281 19.515625 25.863281 19.234375 C 25.863281 14.691406 23.714844 6.6875 21.050781 3.558594 Z M 21.050781 3.558594 "/>
<path style=" stroke:none;fill-rule:nonzero;fill:rgb(96.078431%,88.235294%,58.823529%);fill-opacity:1;" d="M 35.488281 24.417969 L 30.0625 23.511719 C 29.878906 22.953125 29.476562 22.472656 28.898438 22.222656 L 28.546875 22.070312 L 28.707031 21.894531 C 28.960938 21.617188 29.121094 21.28125 29.199219 20.921875 L 34.199219 16.425781 L 33.046875 15.144531 L 28.695312 19.058594 C 28.652344 19.011719 28.613281 18.960938 28.566406 18.914062 C 28.554688 18.90625 28.539062 18.898438 28.527344 18.886719 L 31.121094 14.132812 L 29.605469 13.308594 L 26.8125 18.429688 C 26.351562 18.503906 25.914062 18.707031 25.59375 19.058594 L 25 19.710938 L 24.40625 19.058594 C 24.085938 18.703125 23.648438 18.480469 23.179688 18.40625 L 20.582031 13.648438 L 19.070312 14.472656 L 21.476562 18.882812 C 21.464844 18.894531 21.449219 18.90625 21.433594 18.917969 C 21.386719 18.960938 21.347656 19.011719 21.304688 19.058594 L 16.953125 15.144531 L 15.800781 16.425781 L 20.800781 20.921875 C 20.875 21.28125 21.039062 21.617188 21.289062 21.890625 L 21.453125 22.070312 L 21.101562 22.222656 C 20.523438 22.472656 20.121094 22.953125 19.9375 23.511719 L 14.511719 24.417969 L 14.796875 26.117188 L 20.101562 25.234375 L 15.101562 27.960938 L 15.929688 29.472656 L 21.832031 26.253906 C 22.148438 26.269531 22.464844 26.21875 22.761719 26.09375 L 22.894531 26.035156 L 22.894531 26.261719 C 22.894531 26.761719 23.078125 27.21875 23.375 27.582031 L 22.421875 33.757812 L 24.128906 34.019531 L 24.996094 28.367188 C 25 28.367188 25 28.367188 25 28.367188 C 25.003906 28.367188 25.003906 28.367188 25.007812 28.367188 L 25.871094 34.019531 L 27.578125 33.757812 L 26.628906 27.578125 C 26.921875 27.214844 27.105469 26.761719 27.105469 26.261719 L 27.105469 26.035156 L 27.238281 26.089844 C 27.535156 26.21875 27.851562 26.269531 28.167969 26.253906 L 34.070312 29.472656 L 34.898438 27.960938 L 29.898438 25.234375 L 35.203125 26.117188 Z M 35.488281 24.417969 "/>
<path style=" stroke:none;fill-rule:nonzero;fill:rgb(76.470588%,92.156863%,43.137255%);fill-opacity:1;" d="M 22.847656 18.371094 C 23.441406 18.371094 24.007812 18.621094 24.40625 19.058594 L 25 19.710938 L 25.59375 19.058594 C 26.34375 18.234375 27.738281 18.167969 28.566406 18.914062 C 28.984375 19.296875 29.226562 19.8125 29.253906 20.375 C 29.28125 20.9375 29.085938 21.476562 28.707031 21.894531 L 28.546875 22.070312 L 28.898438 22.222656 C 29.960938 22.679688 30.460938 23.917969 30.003906 24.984375 C 29.78125 25.503906 29.371094 25.902344 28.851562 26.109375 C 28.328125 26.320312 27.757812 26.316406 27.238281 26.09375 L 27.105469 26.035156 L 27.105469 26.261719 C 27.105469 27.421875 26.160156 28.367188 25 28.367188 C 23.839844 28.367188 22.894531 27.421875 22.894531 26.261719 L 22.894531 26.035156 L 22.761719 26.09375 C 22.246094 26.3125 21.671875 26.320312 21.152344 26.113281 C 20.628906 25.902344 20.21875 25.503906 19.996094 24.988281 L 19.996094 24.984375 C 19.539062 23.917969 20.035156 22.679688 21.101562 22.222656 L 21.453125 22.070312 L 21.289062 21.890625 C 20.914062 21.476562 20.71875 20.9375 20.746094 20.375 C 20.773438 19.8125 21.015625 19.296875 21.433594 18.917969 C 21.824219 18.5625 22.324219 18.371094 22.847656 18.371094 Z M 24.035156 19.398438 C 24.035156 19.398438 24.035156 19.394531 24.035156 19.394531 Z M 25.960938 19.398438 L 25.964844 19.398438 C 25.964844 19.398438 25.960938 19.398438 25.960938 19.398438 Z M 21.296875 22.683594 L 21.300781 22.679688 C 21.300781 22.683594 21.300781 22.683594 21.296875 22.683594 Z M 21.296875 22.683594 "/>
<path style=" stroke:none;fill-rule:nonzero;fill:rgb(45.098039%,35.294118%,29.411765%);fill-opacity:1;" d="M 15.945312 25.269531 C 15.945312 25.984375 15.367188 26.5625 14.652344 26.5625 C 13.941406 26.5625 13.359375 25.984375 13.359375 25.269531 C 13.359375 24.554688 13.941406 23.976562 14.652344 23.976562 C 15.367188 23.976562 15.945312 24.554688 15.945312 25.269531 Z M 15.945312 25.269531 "/>
<path style=" stroke:none;fill-rule:nonzero;fill:rgb(45.098039%,35.294118%,29.411765%);fill-opacity:1;" d="M 16.808594 28.714844 C 16.808594 29.429688 16.230469 30.007812 15.515625 30.007812 C 14.800781 30.007812 14.222656 29.429688 14.222656 28.714844 C 14.222656 28 14.800781 27.421875 15.515625 27.421875 C 16.230469 27.421875 16.808594 28 16.808594 28.714844 Z M 16.808594 28.714844 "/>
<path style=" stroke:none;fill-rule:nonzero;fill:rgb(45.098039%,35.294118%,29.411765%);fill-opacity:1;" d="M 24.570312 33.890625 C 24.570312 34.601562 23.988281 35.183594 23.277344 35.183594 C 22.5625 35.183594 21.984375 34.601562 21.984375 33.890625 C 21.984375 33.175781 22.5625 32.597656 23.277344 32.597656 C 23.988281 32.597656 24.570312 33.175781 24.570312 33.890625 Z M 24.570312 33.890625 "/>
<path style=" stroke:none;fill-rule:nonzero;fill:rgb(45.098039%,35.294118%,29.411765%);fill-opacity:1;" d="M 28.019531 33.890625 C 28.019531 34.601562 27.4375 35.183594 26.722656 35.183594 C 26.011719 35.183594 25.429688 34.601562 25.429688 33.890625 C 25.429688 33.175781 26.011719 32.597656 26.722656 32.597656 C 27.4375 32.597656 28.019531 33.175781 28.019531 33.890625 Z M 28.019531 33.890625 "/>
<path style=" stroke:none;fill-rule:nonzero;fill:rgb(45.098039%,35.294118%,29.411765%);fill-opacity:1;" d="M 36.640625 25.269531 C 36.640625 25.984375 36.058594 26.5625 35.347656 26.5625 C 34.632812 26.5625 34.054688 25.984375 34.054688 25.269531 C 34.054688 24.554688 34.632812 23.976562 35.347656 23.976562 C 36.058594 23.976562 36.640625 24.554688 36.640625 25.269531 Z M 36.640625 25.269531 "/>
<path style=" stroke:none;fill-rule:nonzero;fill:rgb(45.098039%,35.294118%,29.411765%);fill-opacity:1;" d="M 35.777344 28.714844 C 35.777344 29.429688 35.199219 30.007812 34.484375 30.007812 C 33.769531 30.007812 33.191406 29.429688 33.191406 28.714844 C 33.191406 28 33.769531 27.421875 34.484375 27.421875 C 35.199219 27.421875 35.777344 28 35.777344 28.714844 Z M 35.777344 28.714844 "/>
<path style=" stroke:none;fill-rule:nonzero;fill:rgb(45.098039%,35.294118%,29.411765%);fill-opacity:1;" d="M 31.464844 14.058594 C 31.464844 14.773438 30.886719 15.351562 30.171875 15.351562 C 29.457031 15.351562 28.878906 14.773438 28.878906 14.058594 C 28.878906 13.347656 29.457031 12.765625 30.171875 12.765625 C 30.886719 12.765625 31.464844 13.347656 31.464844 14.058594 Z M 31.464844 14.058594 "/>
<path style=" stroke:none;fill-rule:nonzero;fill:rgb(45.098039%,35.294118%,29.411765%);fill-opacity:1;" d="M 34.914062 15.785156 C 34.914062 16.5 34.335938 17.078125 33.621094 17.078125 C 32.90625 17.078125 32.328125 16.5 32.328125 15.785156 C 32.328125 15.070312 32.90625 14.492188 33.621094 14.492188 C 34.335938 14.492188 34.914062 15.070312 34.914062 15.785156 Z M 34.914062 15.785156 "/>
<path style=" stroke:none;fill-rule:nonzero;fill:rgb(45.098039%,35.294118%,29.411765%);fill-opacity:1;" d="M 21.121094 14.058594 C 21.121094 14.773438 20.542969 15.351562 19.828125 15.351562 C 19.113281 15.351562 18.535156 14.773438 18.535156 14.058594 C 18.535156 13.347656 19.113281 12.765625 19.828125 12.765625 C 20.542969 12.765625 21.121094 13.347656 21.121094 14.058594 Z M 21.121094 14.058594 "/>
<path style=" stroke:none;fill-rule:nonzero;fill:rgb(45.098039%,35.294118%,29.411765%);fill-opacity:1;" d="M 17.671875 15.785156 C 17.671875 16.5 17.09375 17.078125 16.378906 17.078125 C 15.664062 17.078125 15.085938 16.5 15.085938 15.785156 C 15.085938 15.070312 15.664062 14.492188 16.378906 14.492188 C 17.09375 14.492188 17.671875 15.070312 17.671875 15.785156 Z M 17.671875 15.785156 "/>
<path style=" stroke:none;fill-rule:nonzero;fill:rgb(100%,41.176471%,56.862745%);fill-opacity:1;" d="M 26.132812 22.71875 C 26.128906 22.71875 26.125 22.71875 26.125 22.71875 C 26.226562 22.53125 26.292969 22.320312 26.292969 22.089844 C 26.292969 21.375 25.714844 20.796875 25 20.796875 C 24.285156 20.796875 23.707031 21.375 23.707031 22.089844 C 23.707031 22.320312 23.773438 22.53125 23.878906 22.71875 C 23.175781 22.734375 22.609375 23.304688 22.609375 24.011719 C 22.609375 24.726562 23.191406 25.304688 23.902344 25.304688 C 24.382812 25.304688 24.792969 25.042969 25.019531 24.65625 C 25.242188 25.042969 25.652344 25.304688 26.132812 25.304688 C 26.84375 25.304688 27.425781 24.726562 27.425781 24.011719 C 27.425781 23.296875 26.847656 22.71875 26.132812 22.71875 Z M 26.132812 22.71875 "/>
</g>
</svg>
