<?xml version="1.0" encoding="UTF-8"?>
<svg xmlns="http://www.w3.org/2000/svg" xmlns:xlink="http://www.w3.org/1999/xlink" width="50pt" height="50pt" viewBox="0 0 50 50" version="1.1">
<g id="surface1">
<path style=" stroke:none;fill-rule:nonzero;fill:rgb(100%,96.078431%,86.27451%);fill-opacity:1;" d="M 46.335938 36.320312 L 46.324219 36.316406 C 45.800781 36.015625 45.433594 35.484375 45.382812 34.882812 C 45.148438 32.132812 43.171875 27.480469 41.0625 24.570312 C 40.863281 24.296875 40.515625 24.175781 40.1875 24.25 L 29.121094 26.746094 C 28.917969 26.792969 28.738281 26.90625 28.617188 27.074219 L 24.882812 31.90625 C 24.726562 32.117188 24.820312 32.421875 24.886719 32.675781 C 25.554688 35.160156 26.796875 36.988281 28.472656 37.953125 C 30.246094 38.976562 32.800781 39.234375 34.925781 39.234375 C 36.152344 39.234375 37.234375 39.148438 37.933594 39.074219 C 38.710938 38.992188 41.828125 38.617188 43.753906 37.71875 C 44.304688 37.464844 44.945312 37.511719 45.472656 37.816406 C 45.609375 37.894531 45.757812 37.929688 45.902344 37.929688 C 46.199219 37.929688 46.492188 37.777344 46.652344 37.5 C 46.886719 37.085938 46.746094 36.558594 46.335938 36.320312 Z M 46.335938 36.320312 "/>
<path style=" stroke:none;fill-rule:nonzero;fill:rgb(100%,98.823529%,94.117647%);fill-opacity:1;" d="M 36.199219 32.328125 C 36.050781 32.328125 35.902344 32.289062 35.765625 32.210938 L 30.820312 29.355469 C 30.40625 29.117188 30.265625 28.589844 30.503906 28.175781 C 30.742188 27.765625 31.269531 27.625 31.679688 27.863281 L 36.628906 30.71875 C 37.042969 30.957031 37.183594 31.484375 36.945312 31.898438 C 36.785156 32.171875 36.496094 32.328125 36.199219 32.328125 Z M 36.199219 32.328125 "/>
<path style=" stroke:none;fill-rule:nonzero;fill:rgb(97.254902%,92.156863%,78.431373%);fill-opacity:1;" d="M 46.652344 12.5 C 46.410156 12.085938 45.882812 11.945312 45.472656 12.183594 L 45.453125 12.195312 C 44.933594 12.496094 44.292969 12.546875 43.742188 12.292969 C 41.269531 11.148438 36.347656 10.523438 32.832031 10.855469 C 32.507812 10.886719 32.234375 11.105469 32.121094 11.410156 C 31.441406 13.269531 29.050781 19.761719 28.5 21.257812 C 28.425781 21.460938 28.429688 21.679688 28.511719 21.878906 L 31.210938 28.476562 C 31.3125 28.726562 31.527344 28.921875 31.789062 28.984375 C 32.722656 29.21875 33.613281 29.335938 34.449219 29.335938 C 35.769531 29.335938 36.957031 29.046875 37.953125 28.472656 C 40.753906 26.855469 42.875 22.59375 43.65625 20.835938 C 43.972656 20.125 45.207031 17.238281 45.390625 15.121094 C 45.445312 14.515625 45.808594 13.980469 46.335938 13.679688 C 46.746094 13.441406 46.886719 12.914062 46.652344 12.5 Z M 46.652344 12.5 "/>
<path style=" stroke:none;fill-rule:nonzero;fill:rgb(100%,96.078431%,86.27451%);fill-opacity:1;" d="M 31.242188 22.257812 C 30.945312 22.257812 30.65625 22.101562 30.496094 21.828125 C 30.257812 21.414062 30.398438 20.886719 30.8125 20.648438 L 35.765625 17.789062 C 36.179688 17.550781 36.707031 17.691406 36.945312 18.101562 C 37.183594 18.515625 37.042969 19.042969 36.628906 19.28125 L 31.675781 22.140625 C 31.539062 22.21875 31.390625 22.257812 31.242188 22.257812 Z M 31.242188 22.257812 "/>
<path style=" stroke:none;fill-rule:nonzero;fill:rgb(100%,96.078431%,86.27451%);fill-opacity:1;" d="M 30.722656 6.757812 C 30.261719 6.128906 28.378906 3.617188 26.640625 2.398438 C 26.140625 2.050781 25.863281 1.46875 25.863281 0.863281 C 25.863281 0.386719 25.476562 0 25 0 C 24.523438 0 24.136719 0.386719 24.136719 0.863281 L 24.136719 0.875 C 24.136719 1.480469 23.863281 2.0625 23.367188 2.410156 C 21.109375 3.988281 18.074219 8.007812 16.609375 11.277344 C 16.46875 11.585938 16.539062 11.949219 16.769531 12.199219 L 24.367188 20.414062 C 24.523438 20.582031 24.738281 20.679688 24.964844 20.6875 C 24.964844 20.6875 31.441406 21.351562 31.453125 21.351562 C 31.699219 21.351562 32.097656 20.847656 32.261719 20.664062 C 33.714844 19.015625 34.484375 17.234375 34.484375 15.515625 C 34.484375 12.28125 31.851562 8.316406 30.722656 6.757812 Z M 30.722656 6.757812 "/>
<path style=" stroke:none;fill-rule:nonzero;fill:rgb(100%,98.823529%,94.117647%);fill-opacity:1;" d="M 25 19.066406 C 24.523438 19.066406 24.136719 18.679688 24.136719 18.203125 L 24.136719 12.070312 C 24.136719 11.59375 24.523438 11.207031 25 11.207031 C 25.476562 11.207031 25.863281 11.59375 25.863281 12.070312 L 25.863281 18.203125 C 25.863281 18.679688 25.476562 19.066406 25 19.066406 Z M 25 19.066406 "/>
<path style=" stroke:none;fill-rule:nonzero;fill:rgb(97.254902%,92.156863%,78.431373%);fill-opacity:1;" d="M 25.0625 17.140625 C 24.382812 14.75 23.160156 12.988281 21.527344 12.046875 C 18.726562 10.429688 13.976562 10.722656 12.0625 10.925781 C 11.289062 11.007812 8.171875 11.382812 6.246094 12.28125 C 5.695312 12.535156 5.054688 12.488281 4.527344 12.183594 C 4.113281 11.945312 3.585938 12.085938 3.347656 12.5 C 3.113281 12.914062 3.253906 13.441406 3.664062 13.679688 L 3.671875 13.683594 C 4.199219 13.988281 4.5625 14.523438 4.617188 15.132812 C 4.851562 17.890625 6.835938 22.542969 8.960938 25.460938 C 9.125 25.6875 9.382812 25.816406 9.65625 25.816406 C 9.722656 25.816406 9.785156 25.808594 9.851562 25.796875 L 20.882812 23.253906 C 21.089844 23.207031 21.273438 23.082031 21.394531 22.910156 L 25.179688 18.175781 C 25.328125 17.960938 25.132812 17.390625 25.0625 17.140625 Z M 25.0625 17.140625 "/>
<path style=" stroke:none;fill-rule:nonzero;fill:rgb(100%,96.078431%,86.27451%);fill-opacity:1;" d="M 18.695312 22.222656 C 18.550781 22.222656 18.402344 22.1875 18.265625 22.109375 L 13.371094 19.28125 C 12.957031 19.042969 12.816406 18.515625 13.054688 18.101562 C 13.292969 17.691406 13.820312 17.550781 14.234375 17.789062 L 19.128906 20.613281 C 19.539062 20.851562 19.679688 21.378906 19.445312 21.792969 C 19.285156 22.070312 18.992188 22.222656 18.695312 22.222656 Z M 18.695312 22.222656 "/>
<path style=" stroke:none;fill-rule:nonzero;fill:rgb(100%,96.078431%,86.27451%);fill-opacity:1;" d="M 21.46875 27.214844 L 18.738281 21.46875 C 18.628906 21.242188 18.421875 21.066406 18.175781 21.003906 C 15.785156 20.414062 13.664062 20.59375 12.046875 21.527344 C 9.246094 23.144531 7.125 27.40625 6.34375 29.164062 C 6.027344 29.875 4.792969 32.761719 4.609375 34.878906 C 4.554688 35.484375 4.191406 36.019531 3.664062 36.320312 C 3.253906 36.5625 3.113281 37.085938 3.347656 37.5 C 3.507812 37.777344 3.800781 37.929688 4.097656 37.929688 C 4.242188 37.929688 4.390625 37.894531 4.527344 37.816406 L 4.539062 37.808594 C 5.066406 37.503906 5.707031 37.453125 6.257812 37.710938 C 8.265625 38.652344 11.890625 39.234375 15.09375 39.234375 C 15.878906 39.234375 16.640625 39.199219 17.34375 39.125 C 17.679688 39.089844 17.957031 38.859375 18.058594 38.539062 C 18.703125 36.546875 20.996094 29.441406 21.511719 27.84375 C 21.578125 27.636719 21.5625 27.414062 21.46875 27.214844 Z M 21.46875 27.214844 "/>
<path style=" stroke:none;fill-rule:nonzero;fill:rgb(100%,98.823529%,94.117647%);fill-opacity:1;" d="M 13.800781 32.328125 C 13.503906 32.328125 13.214844 32.171875 13.054688 31.898438 C 12.816406 31.484375 12.957031 30.957031 13.371094 30.71875 L 18.550781 27.726562 C 18.960938 27.488281 19.488281 27.632812 19.726562 28.042969 C 19.964844 28.457031 19.824219 28.984375 19.410156 29.222656 L 14.234375 32.210938 C 14.097656 32.289062 13.949219 32.328125 13.800781 32.328125 Z M 13.800781 32.328125 "/>
<path style=" stroke:none;fill-rule:nonzero;fill:rgb(97.254902%,92.156863%,78.431373%);fill-opacity:1;" d="M 28.472656 37.953125 C 26.792969 36.984375 25.554688 35.15625 24.886719 32.667969 C 24.820312 32.417969 24.875 32.148438 25.027344 31.941406 L 26.261719 30.265625 L 25.632812 29.585938 C 25.480469 29.421875 25.269531 29.324219 25.046875 29.3125 L 18.421875 28.953125 C 18.421875 28.953125 17.878906 29.160156 17.554688 29.550781 C 16.21875 31.140625 15.515625 32.839844 15.515625 34.484375 C 15.515625 37.71875 18.148438 41.683594 19.277344 43.242188 C 19.738281 43.871094 21.621094 46.382812 23.359375 47.601562 C 23.859375 47.949219 24.136719 48.53125 24.136719 49.136719 C 24.136719 49.613281 24.523438 50 25 50 C 25.476562 50 25.863281 49.613281 25.863281 49.136719 L 25.863281 49.132812 C 25.863281 48.527344 26.136719 47.941406 26.632812 47.59375 C 28.789062 46.089844 31.644531 42.359375 33.179688 39.171875 C 31.511719 39.046875 29.777344 38.707031 28.472656 37.953125 Z M 28.472656 37.953125 "/>
<path style=" stroke:none;fill-rule:nonzero;fill:rgb(100%,96.078431%,86.27451%);fill-opacity:1;" d="M 25 38.792969 C 24.523438 38.792969 24.136719 38.40625 24.136719 37.929688 L 24.136719 32.023438 C 24.136719 31.546875 24.523438 31.160156 25 31.160156 C 25.476562 31.160156 25.863281 31.546875 25.863281 32.023438 L 25.863281 37.929688 C 25.863281 38.40625 25.476562 38.792969 25 38.792969 Z M 25 38.792969 "/>
<path style=" stroke:none;fill-rule:nonzero;fill:rgb(100%,92.156863%,43.137255%);fill-opacity:1;" d="M 33.191406 25 C 33.191406 25.835938 32.214844 26.511719 31.972656 27.265625 C 31.714844 28.046875 32.101562 29.164062 31.625 29.8125 C 31.148438 30.472656 29.964844 30.449219 29.308594 30.929688 C 28.65625 31.402344 28.3125 32.535156 27.53125 32.789062 C 26.777344 33.035156 25.835938 32.328125 25 32.328125 C 24.164062 32.328125 23.222656 33.035156 22.46875 32.789062 C 21.6875 32.535156 21.34375 31.402344 20.691406 30.929688 C 20.035156 30.449219 18.851562 30.472656 18.375 29.8125 C 17.898438 29.164062 18.285156 28.046875 18.027344 27.265625 C 17.785156 26.511719 16.808594 25.835938 16.808594 25 C 16.808594 24.164062 17.785156 23.488281 18.027344 22.734375 C 18.285156 21.953125 17.898438 20.835938 18.375 20.1875 C 18.851562 19.527344 20.035156 19.550781 20.691406 19.070312 C 21.34375 18.597656 21.6875 17.464844 22.46875 17.210938 C 23.222656 16.964844 24.164062 17.671875 25 17.671875 C 25.835938 17.671875 26.777344 16.964844 27.53125 17.210938 C 28.3125 17.464844 28.65625 18.597656 29.308594 19.070312 C 29.964844 19.550781 31.148438 19.527344 31.625 20.1875 C 32.101562 20.835938 31.714844 21.953125 31.972656 22.734375 C 32.214844 23.488281 33.191406 24.164062 33.191406 25 Z M 33.191406 25 "/>
<path style=" stroke:none;fill-rule:nonzero;fill:rgb(100%,84.313725%,23.529412%);fill-opacity:1;" d="M 30.171875 25 C 30.171875 27.855469 27.855469 30.171875 25 30.171875 C 22.144531 30.171875 19.828125 27.855469 19.828125 25 C 19.828125 22.144531 22.144531 19.828125 25 19.828125 C 27.855469 19.828125 30.171875 22.144531 30.171875 25 Z M 30.171875 25 "/>
<path style=" stroke:none;fill-rule:nonzero;fill:rgb(100%,62.745098%,29.411765%);fill-opacity:1;" d="M 25.027344 24.570312 C 24.3125 24.570312 23.734375 23.988281 23.734375 23.277344 L 23.734375 22.414062 C 23.734375 21.699219 24.3125 21.121094 25.027344 21.121094 C 25.742188 21.121094 26.320312 21.699219 26.320312 22.414062 L 26.320312 23.277344 C 26.320312 23.992188 25.742188 24.570312 25.027344 24.570312 Z M 25.027344 24.570312 "/>
<path style=" stroke:none;fill-rule:nonzero;fill:rgb(100%,62.745098%,29.411765%);fill-opacity:1;" d="M 27.476562 28.015625 C 27.238281 28.015625 26.996094 27.953125 26.78125 27.8125 L 26.054688 27.347656 C 25.453125 26.960938 25.277344 26.160156 25.664062 25.558594 C 26.050781 24.960938 26.851562 24.785156 27.449219 25.171875 L 28.175781 25.636719 C 28.777344 26.019531 28.953125 26.820312 28.566406 27.421875 C 28.320312 27.808594 27.902344 28.015625 27.476562 28.015625 Z M 27.476562 28.015625 "/>
<path style=" stroke:none;fill-rule:nonzero;fill:rgb(100%,62.745098%,29.411765%);fill-opacity:1;" d="M 22.578125 28.015625 C 22.152344 28.015625 21.738281 27.808594 21.488281 27.421875 C 21.105469 26.820312 21.277344 26.019531 21.878906 25.636719 L 22.605469 25.171875 C 23.207031 24.785156 24.007812 24.960938 24.394531 25.558594 C 24.777344 26.160156 24.601562 26.960938 24.003906 27.347656 L 23.277344 27.8125 C 23.058594 27.949219 22.820312 28.015625 22.578125 28.015625 Z M 22.578125 28.015625 "/>
</g>
</svg>
