<?xml version="1.0" encoding="UTF-8"?>
<svg xmlns="http://www.w3.org/2000/svg" xmlns:xlink="http://www.w3.org/1999/xlink" width="50pt" height="50pt" viewBox="0 0 50 50" version="1.1">
<g id="surface1">
<path style=" stroke:none;fill-rule:nonzero;fill:rgb(100%,35.294118%,35.294118%);fill-opacity:1;" d="M 18.101562 50 C 21.914062 50 25 46.914062 25 43.101562 L 25 25 L 6.898438 25 C 3.085938 25 0 28.085938 0 31.898438 C 0 41.894531 8.105469 50 18.101562 50 Z M 18.101562 50 "/>
<path style=" stroke:none;fill-rule:nonzero;fill:rgb(100%,27.45098%,29.411765%);fill-opacity:1;" d="M 31.898438 50 C 28.085938 50 25 46.914062 25 43.101562 L 25 25 L 43.101562 25 C 46.914062 25 50 28.085938 50 31.898438 C 50 41.894531 41.894531 50 31.898438 50 Z M 31.898438 50 "/>
<path style=" stroke:none;fill-rule:nonzero;fill:rgb(100%,35.294118%,35.294118%);fill-opacity:1;" d="M 31.898438 0 C 28.085938 0 25 3.085938 25 6.898438 L 25 25 L 43.101562 25 C 46.914062 25 50 21.914062 50 18.101562 C 50 8.105469 41.894531 0 31.898438 0 Z M 31.898438 0 "/>
<path style=" stroke:none;fill-rule:nonzero;fill:rgb(100%,27.45098%,29.411765%);fill-opacity:1;" d="M 18.101562 0 C 21.914062 0 25 3.085938 25 6.898438 L 25 25 L 6.898438 25 C 3.085938 25 0 21.914062 0 18.101562 C 0 8.105469 8.105469 0 18.101562 0 Z M 18.101562 0 "/>
<path style=" stroke:none;fill-rule:nonzero;fill:rgb(100%,54.901961%,30.588235%);fill-opacity:1;" d="M 25 14.65625 C 19.285156 14.65625 14.65625 19.285156 14.65625 25 L 25 25 Z M 25 14.65625 "/>
<path style=" stroke:none;fill-rule:nonzero;fill:rgb(100%,64.705882%,33.333333%);fill-opacity:1;" d="M 35.34375 25 C 35.34375 19.285156 30.714844 14.65625 25 14.65625 L 25 25 Z M 35.34375 25 "/>
<path style=" stroke:none;fill-rule:nonzero;fill:rgb(100%,54.901961%,30.588235%);fill-opacity:1;" d="M 25 35.34375 C 30.714844 35.34375 35.34375 30.714844 35.34375 25 L 25 25 Z M 25 35.34375 "/>
<path style=" stroke:none;fill-rule:nonzero;fill:rgb(100%,64.705882%,33.333333%);fill-opacity:1;" d="M 14.65625 25 C 14.65625 30.714844 19.285156 35.34375 25 35.34375 L 25 25 Z M 14.65625 25 "/>
<path style=" stroke:none;fill-rule:nonzero;fill:rgb(84.313725%,27.45098%,29.411765%);fill-opacity:1;" d="M 39.242188 14.109375 C 38.953125 13.730469 38.414062 13.65625 38.035156 13.945312 L 29.613281 20.386719 L 36.054688 11.964844 C 36.34375 11.585938 36.269531 11.046875 35.890625 10.757812 C 35.515625 10.46875 34.972656 10.539062 34.683594 10.917969 L 24.386719 24.386719 L 10.917969 34.683594 C 10.539062 34.972656 10.46875 35.511719 10.757812 35.890625 C 10.925781 36.113281 11.183594 36.230469 11.441406 36.230469 C 11.625 36.230469 11.808594 36.171875 11.964844 36.054688 L 20.386719 29.613281 L 13.945312 38.035156 C 13.65625 38.414062 13.730469 38.953125 14.109375 39.242188 C 14.265625 39.363281 14.449219 39.421875 14.632812 39.421875 C 14.890625 39.421875 15.148438 39.304688 15.316406 39.082031 L 25.613281 25.613281 L 39.082031 15.316406 C 39.460938 15.027344 39.53125 14.488281 39.242188 14.109375 Z M 39.242188 14.109375 "/>
<path style=" stroke:none;fill-rule:nonzero;fill:rgb(80.392157%,25.490196%,27.45098%);fill-opacity:1;" d="M 39.082031 34.683594 L 25.613281 24.386719 L 15.316406 10.917969 C 15.027344 10.539062 14.488281 10.46875 14.109375 10.757812 C 13.730469 11.046875 13.65625 11.585938 13.945312 11.964844 L 20.386719 20.386719 L 11.964844 13.945312 C 11.585938 13.65625 11.046875 13.730469 10.757812 14.109375 C 10.46875 14.484375 10.539062 15.027344 10.917969 15.316406 L 24.386719 25.613281 L 34.683594 39.082031 C 34.851562 39.304688 35.109375 39.421875 35.367188 39.421875 C 35.550781 39.421875 35.734375 39.363281 35.890625 39.242188 C 36.269531 38.953125 36.34375 38.414062 36.054688 38.035156 L 29.613281 29.613281 L 38.035156 36.054688 C 38.191406 36.171875 38.375 36.230469 38.558594 36.230469 C 38.816406 36.230469 39.074219 36.113281 39.242188 35.890625 C 39.53125 35.511719 39.460938 34.972656 39.082031 34.683594 Z M 39.082031 34.683594 "/>
<path style=" stroke:none;fill-rule:nonzero;fill:rgb(56.862745%,19.607843%,23.529412%);fill-opacity:1;" d="M 32.757812 25 C 32.757812 23.839844 31.988281 22.867188 30.933594 22.542969 C 31.449219 21.566406 31.308594 20.335938 30.484375 19.515625 C 29.664062 18.691406 28.433594 18.550781 27.457031 19.066406 C 27.132812 18.011719 26.160156 17.242188 25 17.242188 C 23.839844 17.242188 22.867188 18.011719 22.542969 19.066406 C 21.566406 18.550781 20.335938 18.691406 19.515625 19.515625 C 18.691406 20.335938 18.550781 21.566406 19.066406 22.542969 C 18.011719 22.867188 17.242188 23.839844 17.242188 25 C 17.242188 26.160156 18.011719 27.132812 19.066406 27.457031 C 18.550781 28.433594 18.691406 29.664062 19.515625 30.484375 C 20.335938 31.308594 21.566406 31.449219 22.542969 30.933594 C 22.867188 31.988281 23.839844 32.757812 25 32.757812 C 26.160156 32.757812 27.132812 31.988281 27.457031 30.933594 C 28.433594 31.449219 29.664062 31.308594 30.484375 30.484375 C 31.308594 29.664062 31.449219 28.433594 30.933594 27.457031 C 31.988281 27.132812 32.757812 26.160156 32.757812 25 Z M 32.757812 25 "/>
<path style=" stroke:none;fill-rule:nonzero;fill:rgb(68.627451%,22.745098%,25.490196%);fill-opacity:1;" d="M 25 30.171875 C 22.148438 30.171875 19.828125 27.851562 19.828125 25 C 19.828125 22.148438 22.148438 19.828125 25 19.828125 C 27.851562 19.828125 30.171875 22.148438 30.171875 25 C 30.171875 27.851562 27.851562 30.171875 25 30.171875 Z M 25 21.550781 C 23.097656 21.550781 21.550781 23.097656 21.550781 25 C 21.550781 26.902344 23.097656 28.449219 25 28.449219 C 26.902344 28.449219 28.449219 26.902344 28.449219 25 C 28.449219 23.097656 26.902344 21.550781 25 21.550781 Z M 25 21.550781 "/>
</g>
</svg>
