<?xml version="1.0" encoding="UTF-8"?>
<svg xmlns="http://www.w3.org/2000/svg" xmlns:xlink="http://www.w3.org/1999/xlink" width="50pt" height="50pt" viewBox="0 0 50 50" version="1.1">
<g id="surface1">
<path style=" stroke:none;fill-rule:nonzero;fill:rgb(100%,68.627451%,76.470588%);fill-opacity:1;" d="M 44.355469 24.171875 L 39.710938 37.328125 C 39.578125 37.707031 39.730469 38.125 40.070312 38.335938 C 40.472656 38.582031 40.914062 38.777344 41.222656 38.777344 C 42.671875 38.777344 44.074219 37.121094 45.441406 35.507812 C 46.457031 34.3125 47.605469 32.957031 48.53125 32.585938 C 48.78125 32.488281 49.214844 32.203125 49.296875 31.4375 C 49.445312 30 47.683594 25.945312 45.449219 23.882812 C 45.09375 23.558594 44.515625 23.71875 44.355469 24.171875 Z M 44.355469 24.171875 "/>
<path style=" stroke:none;fill-rule:nonzero;fill:rgb(100%,64.705882%,72.54902%);fill-opacity:1;" d="M 11.292969 32.0625 L 10.523438 30.78125 C 9.015625 28.269531 6.164062 26.914062 3.265625 27.324219 L 2.464844 27.4375 C 2.195312 27.476562 1.960938 27.636719 1.832031 27.871094 C 0.753906 29.8125 1.234375 31.519531 1.652344 33.019531 C 1.972656 34.15625 2.246094 35.140625 1.871094 36.140625 C 1.773438 36.390625 1.804688 36.675781 1.945312 36.90625 C 2.238281 37.375 6.082031 40.125 10.101562 40.511719 C 10.128906 40.511719 10.15625 40.515625 10.183594 40.515625 C 10.453125 40.515625 10.710938 40.386719 10.871094 40.171875 C 12.65625 37.792969 12.820312 34.609375 11.292969 32.0625 Z M 11.292969 32.0625 "/>
<path style=" stroke:none;fill-rule:nonzero;fill:rgb(100%,64.705882%,72.54902%);fill-opacity:1;" d="M 20.617188 2.816406 C 18.015625 0.710938 13.519531 0.964844 12.980469 1.148438 C 12.699219 1.242188 12.480469 1.480469 12.410156 1.769531 C 12.21875 2.582031 11.617188 3.5 11.035156 4.386719 C 10.050781 5.894531 9.03125 7.453125 9.414062 9.144531 C 9.5 9.539062 9.851562 9.816406 10.253906 9.816406 C 10.265625 9.816406 10.28125 9.816406 10.292969 9.816406 L 12.441406 9.71875 C 16.15625 9.554688 19.445312 7.257812 20.878906 3.828125 C 21.03125 3.472656 20.917969 3.0625 20.617188 2.816406 Z M 20.617188 2.816406 "/>
<path style=" stroke:none;fill-rule:nonzero;fill:rgb(100%,64.705882%,72.54902%);fill-opacity:1;" d="M 48.503906 19.023438 C 47.132812 13.382812 40.785156 11.105469 40.515625 11.011719 C 40.066406 10.855469 39.574219 11.089844 39.417969 11.539062 C 39.347656 11.734375 37.757812 16.359375 38.65625 20.851562 C 39.542969 25.296875 42.675781 29.625 42.804688 29.808594 C 42.972656 30.03125 43.230469 30.160156 43.503906 30.160156 C 43.5625 30.160156 43.621094 30.15625 43.679688 30.144531 C 44.011719 30.074219 44.269531 29.816406 44.34375 29.488281 C 44.566406 28.5 45.984375 25.320312 47.019531 22.996094 C 48.605469 19.441406 48.597656 19.410156 48.503906 19.023438 Z M 48.503906 19.023438 "/>
<path style=" stroke:none;fill-rule:nonzero;fill:rgb(100%,60.784314%,68.627451%);fill-opacity:1;" d="M 13.648438 8.074219 C 13.496094 7.867188 13.257812 7.738281 13 7.722656 C 9.308594 7.523438 2.832031 13.605469 2.105469 14.296875 C 2.003906 14.394531 1.929688 14.511719 1.886719 14.640625 C 1.777344 14.960938 -0.761719 22.507812 1.925781 27.59375 C 2.988281 29.613281 4.71875 30.960938 7.0625 31.609375 C 7.136719 31.628906 7.214844 31.640625 7.292969 31.640625 C 7.441406 31.640625 7.59375 31.601562 7.726562 31.523438 C 7.925781 31.40625 8.070312 31.214844 8.128906 30.992188 L 13.789062 8.796875 C 13.851562 8.546875 13.800781 8.28125 13.648438 8.074219 Z M 13.648438 8.074219 "/>
<path style=" stroke:none;fill-rule:nonzero;fill:rgb(100%,60.784314%,68.627451%);fill-opacity:1;" d="M 36.464844 6.3125 C 32.539062 4.046875 31.023438 0.664062 31.007812 0.632812 C 30.890625 0.363281 30.648438 0.171875 30.359375 0.125 C 30.273438 0.109375 21.667969 -1.257812 18.785156 5.433594 C 18.613281 5.824219 18.757812 6.28125 19.121094 6.507812 L 39.71875 19.242188 C 39.855469 19.328125 40.015625 19.371094 40.171875 19.371094 C 40.261719 19.371094 40.351562 19.359375 40.4375 19.332031 C 40.675781 19.253906 40.871094 19.074219 40.96875 18.84375 C 42.265625 15.75 42.191406 9.613281 36.464844 6.3125 Z M 36.464844 6.3125 "/>
<path style=" stroke:none;fill-rule:nonzero;fill:rgb(100%,60.784314%,68.627451%);fill-opacity:1;" d="M 39.03125 38.792969 C 39.007812 38.355469 38.660156 38.007812 38.222656 37.984375 L 11.09375 36.335938 C 10.746094 36.316406 10.410156 36.511719 10.261719 36.832031 C 9.785156 37.847656 9.527344 39.550781 10.238281 41.28125 C 11.148438 43.5 13.347656 45.265625 16.78125 46.53125 C 18.527344 47.175781 19.761719 47.785156 20.847656 48.324219 C 22.203125 48.996094 23.371094 49.574219 24.90625 49.875 C 25.332031 49.957031 25.773438 50 26.214844 50 C 28.300781 50 30.507812 49.082031 32.554688 47.332031 C 32.960938 46.988281 33.542969 46.648438 34.160156 46.289062 C 36.324219 45.023438 39.292969 43.292969 39.03125 38.792969 Z M 39.03125 38.792969 "/>
<path style=" stroke:none;fill-rule:nonzero;fill:rgb(100%,56.862745%,64.705882%);fill-opacity:1;" d="M 43.230469 26.167969 C 42.78125 24.804688 42.316406 23.390625 42.136719 21.996094 C 41.824219 19.558594 40.867188 17.738281 39.296875 16.582031 C 36.898438 14.8125 33.972656 15.300781 33.847656 15.324219 C 33.566406 15.371094 33.328125 15.558594 33.210938 15.820312 L 21.734375 41.484375 C 21.585938 41.820312 21.664062 42.214844 21.933594 42.464844 C 23.394531 43.828125 25.433594 44.800781 27.542969 44.800781 C 29.074219 44.800781 30.640625 44.289062 32.054688 43.050781 C 33.765625 41.550781 35.433594 40.765625 37.046875 40.007812 C 39.746094 38.738281 42.292969 37.539062 43.945312 33.363281 C 44.851562 31.082031 44.0625 28.695312 43.230469 26.167969 Z M 43.230469 26.167969 "/>
<path style=" stroke:none;fill-rule:nonzero;fill:rgb(100%,52.941176%,60.784314%);fill-opacity:1;" d="M 34.328125 12.058594 C 33.464844 10.335938 32.601562 9.472656 29.386719 8.449219 C 27.53125 7.859375 25.339844 7.515625 23.101562 6.199219 C 18.867188 3.707031 15.492188 5.410156 13.855469 6.648438 C 11.078125 8.753906 9.355469 12.519531 10.019531 15.046875 C 10.117188 15.417969 10.445312 15.679688 10.828125 15.691406 L 33.160156 16.375 C 33.167969 16.375 33.179688 16.375 33.1875 16.375 C 33.34375 16.375 33.5 16.332031 33.636719 16.25 C 34.472656 15.738281 35.304688 14.019531 34.328125 12.058594 Z M 34.328125 12.058594 "/>
<path style=" stroke:none;fill-rule:nonzero;fill:rgb(100%,49.019608%,56.862745%);fill-opacity:1;" d="M 25.308594 39.109375 L 16.070312 14.078125 C 16.011719 13.917969 15.902344 13.773438 15.757812 13.675781 C 14.46875 12.761719 12.585938 12.933594 10.597656 14.136719 C 7.03125 16.300781 3.425781 20.511719 4.148438 25.855469 C 4.480469 28.332031 5.59375 29.613281 6.671875 30.851562 C 7.386719 31.675781 8.5 33.304688 9.085938 34.585938 C 11.25 39.28125 14.847656 42.472656 18.476562 42.914062 C 18.765625 42.949219 19.054688 42.96875 19.339844 42.96875 C 21.554688 42.96875 23.601562 41.914062 25.175781 39.945312 C 25.363281 39.707031 25.414062 39.390625 25.308594 39.109375 Z M 25.308594 39.109375 "/>
<path style=" stroke:none;fill-rule:nonzero;fill:rgb(100%,45.098039%,52.941176%);fill-opacity:1;" d="M 33.957031 15.363281 C 32.109375 13.613281 30.109375 13.019531 28.328125 13.6875 C 28.214844 13.730469 28.109375 13.796875 28.023438 13.882812 L 13.878906 27.945312 C 13.8125 28.011719 13.757812 28.085938 13.71875 28.164062 C 12.996094 29.578125 13.148438 31.996094 14.09375 34.1875 C 14.800781 35.820312 16.574219 38.734375 20.511719 39.875 C 21.449219 40.148438 22.425781 40.277344 23.414062 40.277344 C 29.304688 40.277344 35.691406 35.6875 37.640625 29.5 C 39.316406 24.171875 36.996094 18.242188 33.957031 15.363281 Z M 33.957031 15.363281 "/>
<path style=" stroke:none;fill-rule:nonzero;fill:rgb(100%,39.215686%,47.058824%);fill-opacity:1;" d="M 25.007812 11.90625 C 21.503906 10.570312 17.457031 11.289062 14.691406 13.734375 C 12.773438 15.429688 9.945312 19.339844 10.023438 23.167969 C 10.0625 25.074219 10.855469 26.714844 12.320312 27.90625 C 14.152344 29.398438 15.984375 29.875 17.585938 29.875 C 19.722656 29.875 21.449219 29.027344 22.195312 28.585938 C 22.289062 28.542969 22.371094 28.484375 22.445312 28.410156 L 30.507812 20.164062 C 30.691406 19.976562 30.777344 19.71875 30.746094 19.460938 C 30.324219 15.890625 28.234375 13.136719 25.007812 11.90625 Z M 25.007812 11.90625 "/>
<path style=" stroke:none;fill-rule:nonzero;fill:rgb(100%,31.372549%,39.215686%);fill-opacity:1;" d="M 30.570312 19.027344 C 28.964844 16.988281 26.585938 15.6875 24.046875 15.464844 C 21.992188 15.28125 20.054688 15.855469 18.734375 17.03125 C 16.339844 19.167969 15.464844 21.796875 16.332031 24.242188 C 16.773438 25.496094 17.65625 26.566406 18.710938 27.242188 C 17.285156 27.4375 16.46875 28.988281 17.144531 30.261719 C 18.097656 32.058594 19.675781 33.644531 21.675781 34.023438 C 22.171875 34.117188 22.667969 34.160156 23.15625 34.160156 C 25.742188 34.160156 28.960938 33.382812 30.878906 31.03125 C 33.121094 28.273438 34.464844 23.984375 30.570312 19.027344 Z M 30.570312 19.027344 "/>
<path style=" stroke:none;fill-rule:nonzero;fill:rgb(82.352941%,25.490196%,31.372549%);fill-opacity:1;" d="M 26.128906 25.566406 C 25.617188 25.53125 24.371094 26.691406 22.933594 25.175781 C 22.195312 24.394531 22.058594 23.167969 22.53125 22.199219 C 22.644531 21.964844 22.785156 21.757812 22.945312 21.582031 C 23.253906 21.238281 23.003906 20.707031 22.546875 20.757812 C 21.328125 20.890625 20.175781 21.582031 19.496094 22.792969 C 18.71875 24.183594 18.863281 25.964844 19.863281 27.199219 C 21.527344 29.25 24.523438 29.167969 26.09375 27.242188 C 26.257812 27.039062 26.394531 26.824219 26.507812 26.601562 C 26.707031 26.210938 26.75 25.613281 26.128906 25.566406 Z M 26.128906 25.566406 "/>
</g>
</svg>
