<?xml version="1.0" encoding="UTF-8"?>
<svg xmlns="http://www.w3.org/2000/svg" xmlns:xlink="http://www.w3.org/1999/xlink" width="50pt" height="50pt" viewBox="0 0 50 50" version="1.1">
<g id="surface1">
<path style=" stroke:none;fill-rule:nonzero;fill:rgb(66.666667%,37.254902%,90.196078%);fill-opacity:1;" d="M 18.40625 14.847656 C 18.8125 12.429688 21.851562 4.394531 27.558594 1.265625 C 30.4375 -0.3125 33.53125 -0.414062 36.757812 0.957031 C 42.003906 3.1875 45.347656 6.097656 46.699219 9.609375 C 48.09375 13.234375 46.792969 16.125 46.734375 16.246094 C 46.671875 16.378906 46.578125 16.496094 46.460938 16.582031 C 46.28125 16.714844 42.046875 19.839844 37.164062 22.425781 C 32.960938 24.652344 29.605469 25.765625 27.125 25.765625 C 25.554688 25.765625 24.332031 25.316406 23.472656 24.417969 C 18.683594 19.429688 18.40625 15.21875 18.394531 15.039062 C 18.390625 14.976562 18.394531 14.910156 18.40625 14.847656 Z M 18.40625 14.847656 "/>
<path style=" stroke:none;fill-rule:nonzero;fill:rgb(71.372549%,44.705882%,87.058824%);fill-opacity:1;" d="M 21.105469 16.273438 C 21.375 14.683594 23.371094 9.398438 27.125 7.339844 C 29.019531 6.300781 31.058594 6.234375 33.179688 7.136719 C 36.628906 8.605469 38.828125 10.519531 39.71875 12.828125 C 40.636719 15.214844 39.78125 17.113281 39.742188 17.195312 C 39.703125 17.28125 39.640625 17.359375 39.5625 17.417969 C 39.445312 17.503906 36.660156 19.558594 33.445312 21.257812 C 30.683594 22.722656 28.476562 23.457031 26.84375 23.457031 C 25.808594 23.457031 25.003906 23.164062 24.4375 22.570312 C 21.289062 19.289062 21.105469 16.519531 21.097656 16.402344 C 21.097656 16.359375 21.097656 16.316406 21.105469 16.273438 Z M 21.105469 16.273438 "/>
<path style=" stroke:none;fill-rule:nonzero;fill:rgb(68.627451%,41.176471%,94.117647%);fill-opacity:1;" d="M 31.582031 14.847656 C 31.175781 12.429688 28.136719 4.394531 22.429688 1.265625 C 19.550781 -0.3125 16.457031 -0.414062 13.226562 0.957031 C 7.984375 3.1875 4.640625 6.097656 3.289062 9.609375 C 1.894531 13.234375 3.195312 16.125 3.253906 16.246094 C 3.3125 16.378906 3.410156 16.496094 3.527344 16.582031 C 3.707031 16.714844 7.941406 19.839844 12.824219 22.425781 C 17.023438 24.652344 20.378906 25.765625 22.859375 25.765625 C 24.433594 25.765625 25.65625 25.316406 26.515625 24.417969 C 31.304688 19.429688 31.582031 15.21875 31.59375 15.039062 C 31.59375 14.976562 31.59375 14.910156 31.582031 14.847656 Z M 31.582031 14.847656 "/>
<path style=" stroke:none;fill-rule:nonzero;fill:rgb(74.509804%,49.803922%,84.705882%);fill-opacity:1;" d="M 29.929688 18.589844 C 29.660156 17 27.660156 11.710938 23.90625 9.65625 C 22.011719 8.617188 19.976562 8.546875 17.855469 9.453125 C 14.40625 10.917969 12.207031 12.835938 11.316406 15.144531 C 10.398438 17.527344 11.253906 19.429688 11.292969 19.507812 C 11.332031 19.597656 11.394531 19.671875 11.472656 19.730469 C 11.589844 19.816406 14.375 21.871094 17.589844 23.574219 C 20.351562 25.039062 22.558594 25.773438 24.191406 25.773438 C 25.226562 25.773438 26.03125 25.476562 26.597656 24.886719 C 29.746094 21.601562 29.929688 18.832031 29.933594 18.714844 C 29.9375 18.671875 29.933594 18.632812 29.929688 18.589844 Z M 29.929688 18.589844 "/>
<path style=" stroke:none;fill-rule:nonzero;fill:rgb(70.588235%,47.058824%,98.039216%);fill-opacity:1;" d="M 36.550781 31.515625 C 37.800781 31.515625 39.046875 31.417969 40.277344 31.191406 C 41.304688 31 42.355469 30.765625 43.429688 30.484375 C 46.066406 29.789062 48.140625 28.027344 49.117188 25.652344 C 50.015625 23.472656 49.835938 21.050781 48.632812 19 L 45.917969 14.394531 C 44.695312 12.324219 42.574219 10.882812 40.09375 10.4375 C 37.484375 9.96875 34.839844 10.640625 32.828125 12.277344 C 28.894531 15.484375 26.273438 18.726562 25 21.945312 C 23.726562 18.726562 21.105469 15.484375 17.171875 12.277344 C 15.160156 10.640625 12.515625 9.96875 9.90625 10.4375 C 7.425781 10.882812 5.304688 12.324219 4.085938 14.394531 L 1.367188 19 C 0.164062 21.050781 -0.015625 23.472656 0.882812 25.652344 C 1.859375 28.027344 3.933594 29.789062 6.570312 30.484375 C 7.644531 30.765625 8.699219 31 9.722656 31.191406 C 10.953125 31.417969 12.199219 31.515625 13.449219 31.515625 Z M 36.550781 31.515625 "/>
<path style=" stroke:none;fill-rule:nonzero;fill:rgb(81.568627%,60.392157%,72.941176%);fill-opacity:1;" d="M 24.691406 26.417969 C 24.273438 23.957031 22.527344 21.460938 19.503906 18.996094 C 18.289062 18.007812 16.6875 17.601562 15.109375 17.882812 C 13.609375 18.152344 12.324219 19.023438 11.585938 20.277344 L 9.945312 23.066406 C 9.214844 24.304688 9.105469 25.769531 9.648438 27.089844 C 10.242188 28.527344 11.496094 29.59375 13.089844 30.011719 C 14.195312 30.300781 15.265625 30.511719 16.273438 30.636719 C 16.292969 30.640625 16.316406 30.640625 16.335938 30.640625 C 16.414062 30.640625 16.488281 30.625 16.558594 30.59375 L 24.386719 26.992188 C 24.605469 26.890625 24.730469 26.65625 24.691406 26.417969 Z M 24.691406 26.417969 "/>
<path style=" stroke:none;fill-rule:nonzero;fill:rgb(81.568627%,60.392157%,72.941176%);fill-opacity:1;" d="M 25.308594 26.417969 C 25.726562 23.957031 27.472656 21.460938 30.496094 18.996094 C 31.710938 18.007812 33.3125 17.601562 34.890625 17.882812 C 36.390625 18.152344 37.675781 19.023438 38.414062 20.277344 L 40.054688 23.066406 C 40.785156 24.304688 40.894531 25.769531 40.351562 27.089844 C 39.757812 28.527344 38.503906 29.59375 36.910156 30.011719 C 35.804688 30.300781 34.734375 30.511719 33.726562 30.636719 C 33.707031 30.640625 33.683594 30.640625 33.664062 30.640625 C 33.585938 30.640625 33.511719 30.625 33.441406 30.59375 L 25.613281 26.992188 C 25.394531 26.890625 25.269531 26.65625 25.308594 26.417969 Z M 25.308594 26.417969 "/>
<path style=" stroke:none;fill-rule:nonzero;fill:rgb(76.470588%,52.941176%,100%);fill-opacity:1;" d="M 45.539062 37.558594 C 45.265625 35.085938 43.8125 32.910156 41.546875 31.585938 C 36.335938 28.542969 31.886719 26.886719 27.855469 26.527344 L 22.144531 26.523438 C 22.140625 26.523438 22.140625 26.523438 22.140625 26.523438 C 22.117188 26.523438 22.089844 26.523438 22.0625 26.527344 C 16.804688 26.996094 11.738281 29.660156 8.386719 31.625 C 6.152344 32.933594 4.71875 35.089844 4.453125 37.539062 C 4.191406 39.9375 5.089844 42.285156 6.921875 43.980469 L 10.933594 47.691406 C 12.789062 49.410156 15.347656 50.234375 17.949219 49.941406 C 20.460938 49.664062 22.683594 48.367188 24.042969 46.386719 C 24.179688 46.191406 24.3125 45.992188 24.445312 45.792969 C 24.671875 45.449219 25.328125 45.449219 25.554688 45.792969 C 25.6875 45.992188 25.820312 46.191406 25.953125 46.386719 C 27.3125 48.367188 29.535156 49.664062 32.046875 49.941406 C 32.394531 49.980469 32.734375 50 33.074219 50 C 35.3125 50 37.453125 49.183594 39.066406 47.691406 L 43.074219 43.980469 C 44.902344 42.289062 45.800781 39.945312 45.539062 37.558594 Z M 45.539062 37.558594 "/>
<path style=" stroke:none;fill-rule:nonzero;fill:rgb(88.235294%,68.627451%,57.647059%);fill-opacity:1;" d="M 22.589844 26.523438 L 27.367188 26.527344 C 30.390625 26.941406 33.871094 28.761719 37.996094 32.089844 C 39.132812 33.003906 39.859375 34.472656 39.988281 36.113281 C 40.113281 37.671875 39.6875 39.160156 38.796875 40.300781 L 35.269531 44.808594 C 34.429688 45.882812 33.304688 46.472656 32.105469 46.472656 C 31.921875 46.472656 31.734375 46.460938 31.546875 46.429688 C 30.230469 46.226562 29.082031 45.320312 28.394531 43.9375 C 28.285156 43.722656 28.179688 43.503906 28.078125 43.292969 C 27.410156 41.886719 26.257812 41.050781 25 41.050781 C 23.738281 41.050781 22.589844 41.886719 21.921875 43.28125 C 21.816406 43.503906 21.710938 43.71875 21.601562 43.941406 C 20.914062 45.320312 19.765625 46.226562 18.449219 46.429688 C 18.265625 46.460938 18.074219 46.472656 17.890625 46.472656 C 16.691406 46.472656 15.566406 45.882812 14.726562 44.808594 L 11.199219 40.300781 C 10.300781 39.15625 9.875 37.65625 10 36.085938 C 10.128906 34.46875 10.839844 33.027344 11.949219 32.132812 C 14.621094 29.96875 18.628906 27.042969 22.589844 26.523438 "/>
<path style=" stroke:none;fill-rule:nonzero;fill:rgb(58.823529%,39.215686%,62.745098%);fill-opacity:1;" d="M 22.292969 27.636719 C 22.230469 27.636719 22.167969 27.628906 22.109375 27.617188 L 12.472656 25.554688 C 11.996094 25.449219 11.691406 24.980469 11.792969 24.507812 C 11.894531 24.03125 12.363281 23.726562 12.839844 23.828125 L 20.386719 25.445312 L 14.828125 21.90625 C 14.417969 21.648438 14.296875 21.101562 14.558594 20.691406 C 14.820312 20.28125 15.363281 20.15625 15.773438 20.421875 L 23.140625 25.105469 C 23.5 25.335938 23.644531 25.792969 23.480469 26.1875 L 23.105469 27.089844 C 22.96875 27.425781 22.644531 27.636719 22.292969 27.636719 Z M 22.292969 27.636719 "/>
<path style=" stroke:none;fill-rule:nonzero;fill:rgb(58.823529%,39.215686%,62.745098%);fill-opacity:1;" d="M 38.203125 24.507812 C 38.101562 24.03125 37.632812 23.726562 37.15625 23.828125 L 29.609375 25.445312 L 35.167969 21.90625 C 35.582031 21.648438 35.703125 21.101562 35.441406 20.691406 C 35.179688 20.28125 34.632812 20.15625 34.222656 20.421875 L 26.988281 25.023438 C 26.6875 25.214844 26.53125 25.566406 26.589844 25.917969 L 26.765625 26.921875 C 26.765625 26.925781 26.769531 26.933594 26.769531 26.9375 C 26.769531 26.945312 26.769531 26.949219 26.769531 26.957031 C 26.78125 27.011719 26.808594 27.058594 26.832031 27.105469 C 26.847656 27.148438 26.859375 27.191406 26.878906 27.226562 C 26.910156 27.277344 26.953125 27.320312 26.996094 27.363281 C 27.023438 27.394531 27.042969 27.425781 27.074219 27.453125 C 27.125 27.492188 27.183594 27.519531 27.242188 27.546875 C 27.273438 27.566406 27.300781 27.585938 27.332031 27.601562 C 27.429688 27.632812 27.527344 27.652344 27.632812 27.652344 C 27.679688 27.652344 27.730469 27.648438 27.78125 27.640625 C 27.785156 27.640625 27.789062 27.636719 27.792969 27.636719 C 27.800781 27.632812 27.808594 27.636719 27.816406 27.632812 L 37.527344 25.554688 C 38 25.449219 38.304688 24.980469 38.203125 24.507812 Z M 38.203125 24.507812 "/>
<path style=" stroke:none;fill-rule:nonzero;fill:rgb(96.470588%,79.607843%,28.235294%);fill-opacity:1;" d="M 23.652344 26.523438 L 26.320312 26.523438 C 28.007812 26.757812 29.949219 27.773438 32.25 29.628906 C 32.882812 30.140625 33.289062 30.960938 33.363281 31.875 C 33.433594 32.746094 33.195312 33.578125 32.699219 34.210938 L 30.726562 36.730469 C 30.261719 37.328125 29.632812 37.65625 28.964844 37.65625 C 28.859375 37.65625 28.753906 37.648438 28.652344 37.632812 C 27.917969 37.519531 27.277344 37.015625 26.890625 36.242188 C 26.832031 36.121094 26.773438 36 26.714844 35.882812 C 26.34375 35.097656 25.699219 34.628906 24.996094 34.628906 C 24.292969 34.628906 23.652344 35.097656 23.28125 35.875 C 23.222656 36 23.160156 36.121094 23.101562 36.246094 C 22.71875 37.015625 22.074219 37.519531 21.34375 37.632812 C 21.238281 37.648438 21.132812 37.65625 21.03125 37.65625 C 20.359375 37.65625 19.734375 37.328125 19.265625 36.730469 L 17.296875 34.214844 C 16.796875 33.574219 16.558594 32.738281 16.625 31.859375 C 16.699219 30.957031 17.09375 30.15625 17.714844 29.652344 C 19.207031 28.445312 21.441406 26.8125 23.652344 26.523438 "/>
<path style=" stroke:none;fill-rule:nonzero;fill:rgb(58.823529%,39.215686%,62.745098%);fill-opacity:1;" d="M 34.4375 35.527344 L 27.632812 28.722656 C 27.472656 28.5625 27.261719 28.472656 27.035156 28.464844 L 23.121094 28.355469 C 22.863281 28.339844 22.644531 28.441406 22.472656 28.613281 L 15.558594 35.527344 C 15.214844 35.871094 15.214844 36.429688 15.558594 36.773438 C 15.902344 37.117188 16.460938 37.117188 16.804688 36.773438 L 22.125 31.453125 L 18.910156 38.425781 C 18.703125 38.867188 18.898438 39.394531 19.339844 39.597656 C 19.460938 39.652344 19.585938 39.679688 19.707031 39.679688 C 20.042969 39.679688 20.359375 39.488281 20.511719 39.164062 L 24.664062 30.164062 L 25.347656 30.179688 C 25.351562 30.191406 25.351562 30.203125 25.355469 30.210938 L 29.488281 39.164062 C 29.636719 39.488281 29.957031 39.679688 30.289062 39.679688 C 30.414062 39.679688 30.539062 39.652344 30.65625 39.597656 C 31.101562 39.394531 31.292969 38.867188 31.089844 38.425781 L 27.871094 31.453125 L 33.191406 36.773438 C 33.363281 36.945312 33.589844 37.03125 33.816406 37.03125 C 34.039062 37.03125 34.265625 36.945312 34.4375 36.773438 C 34.78125 36.429688 34.78125 35.871094 34.4375 35.527344 Z M 34.4375 35.527344 "/>
<path style=" stroke:none;fill-rule:nonzero;fill:rgb(100%,84.313725%,15.686275%);fill-opacity:1;" d="M 28.523438 27.335938 C 28.523438 29.285156 26.945312 30.863281 25 30.863281 C 23.050781 30.863281 21.472656 29.285156 21.472656 27.335938 C 21.472656 25.386719 23.050781 23.808594 25 23.808594 C 26.945312 23.808594 28.523438 25.386719 28.523438 27.335938 Z M 28.523438 27.335938 "/>
</g>
</svg>
