<?xml version="1.0" encoding="UTF-8"?>
<svg xmlns="http://www.w3.org/2000/svg" xmlns:xlink="http://www.w3.org/1999/xlink" width="50pt" height="50pt" viewBox="0 0 50 50" version="1.1">
<g id="surface1">
<path style=" stroke:none;fill-rule:nonzero;fill:rgb(97.254902%,92.156863%,78.431373%);fill-opacity:1;" d="M 45.832031 38.914062 L 42.742188 34.75 C 42.722656 34.726562 42.707031 34.707031 42.6875 34.683594 C 41.128906 32.960938 35.226562 34.789062 25.152344 40.125 C 22.046875 41.769531 22.773438 43.40625 22.867188 43.585938 C 22.886719 43.621094 22.90625 43.65625 22.925781 43.6875 C 23.492188 44.496094 25 46.9375 25.199219 48.476562 C 25.261719 48.949219 25.523438 49.355469 25.945312 49.617188 C 26.382812 49.890625 27.027344 50 27.777344 50 C 30.125 50 33.5 48.9375 34.710938 48.53125 C 35.027344 48.421875 35.253906 48.144531 35.292969 47.816406 C 35.296875 47.796875 35.558594 46.03125 36.429688 46.054688 L 37.160156 46.078125 C 40.375 46.183594 42.5 46.25 42.707031 43.59375 C 42.746094 43.085938 44.148438 41.441406 45.707031 40.078125 C 46.042969 39.78125 46.097656 39.277344 45.832031 38.914062 Z M 45.832031 38.914062 "/>
<path style=" stroke:none;fill-rule:nonzero;fill:rgb(100%,31.372549%,39.215686%);fill-opacity:1;" d="M 25.652344 42.65625 C 25.269531 45.238281 27.640625 46.921875 28.71875 46.777344 C 31.433594 46.414062 31.953125 45.773438 34.324219 44.550781 C 36.695312 43.328125 39.640625 44.980469 40.433594 42.539062 C 41.222656 40.09375 43.59375 37.578125 40.144531 36.429688 C 36.695312 35.28125 25.960938 40.542969 25.652344 42.65625 Z M 25.652344 42.65625 "/>
<path style=" stroke:none;fill-rule:nonzero;fill:rgb(100%,98.039216%,92.156863%);fill-opacity:1;" d="M 20.332031 43.585938 C 20.277344 39.433594 12.34375 32.246094 9.242188 30.722656 C 8.683594 30.445312 7.867188 30.132812 7.199219 30.640625 C 5.613281 32.0625 2.90625 34.605469 2.613281 35.632812 C 2.347656 36.550781 3.070312 37.738281 4.117188 39.316406 C 4.289062 39.574219 4.511719 39.910156 4.613281 40.089844 C 4.605469 40.148438 4.597656 40.214844 4.585938 40.289062 C 4.4375 41.371094 4.1875 43.179688 5.28125 43.910156 C 5.832031 44.277344 7.429688 45.003906 9.632812 45.988281 C 10.507812 46.382812 11.320312 46.746094 11.789062 46.964844 C 11.9375 47.097656 12.152344 47.699219 12.265625 48.019531 C 12.492188 48.652344 12.667969 49.148438 13.078125 49.421875 C 13.222656 49.519531 13.414062 49.648438 14.640625 49.648438 C 15.5625 49.648438 17.078125 49.574219 19.609375 49.359375 C 20.058594 49.324219 20.402344 48.941406 20.398438 48.488281 Z M 20.332031 43.585938 "/>
<path style=" stroke:none;fill-rule:nonzero;fill:rgb(100%,49.019608%,56.862745%);fill-opacity:1;" d="M 10.179688 32.511719 C 7.519531 32.191406 5.113281 35.640625 6.332031 37.722656 C 7.554688 39.808594 6.957031 39.917969 8.09375 41.675781 C 10.070312 44.730469 13.203125 42.386719 13.84375 44.191406 C 14.597656 46.3125 17.003906 46.992188 18.011719 45.773438 C 19.015625 44.550781 18.476562 42.574219 18.011719 41.746094 C 16.570312 39.199219 12.820312 32.835938 10.179688 32.511719 Z M 10.179688 32.511719 "/>
<path style=" stroke:none;fill-rule:nonzero;fill:rgb(100%,98.039216%,92.156863%);fill-opacity:1;" d="M 12.417969 8.667969 L 12.09375 8.523438 C 10.699219 7.90625 8.367188 6.875 7.21875 8.402344 C 6.839844 8.910156 6.449219 9.011719 5.855469 9.164062 C 5.5625 9.238281 5.226562 9.324219 4.882812 9.472656 C 4.09375 9.808594 3.671875 10.796875 3.183594 11.941406 C 2.960938 12.472656 2.582031 13.359375 2.394531 13.503906 C 0.742188 14.210938 0.722656 17.09375 1.402344 19.472656 C 1.527344 19.910156 1.15625 21.246094 0.734375 22.21875 C 0.625 22.472656 0.640625 22.761719 0.78125 23 L 2.796875 26.425781 C 2.957031 26.695312 3.242188 26.851562 3.542969 26.851562 C 3.601562 26.851562 3.660156 26.847656 3.71875 26.832031 L 7.621094 26.007812 C 9.75 25.363281 13.800781 16.089844 14.015625 12.265625 C 14.148438 9.917969 13.21875 9.011719 12.417969 8.667969 Z M 12.417969 8.667969 "/>
<path style=" stroke:none;fill-rule:nonzero;fill:rgb(100%,49.019608%,56.862745%);fill-opacity:1;" d="M 11.6875 11.636719 C 11.132812 10.726562 8.238281 9.984375 6.871094 11.566406 C 5.507812 13.148438 6.109375 16.289062 4.714844 17.855469 C 2.957031 19.828125 2.847656 25.722656 7.734375 24.070312 C 12.621094 22.417969 12.691406 13.289062 11.6875 11.636719 Z M 11.6875 11.636719 "/>
<path style=" stroke:none;fill-rule:nonzero;fill:rgb(100%,96.078431%,86.27451%);fill-opacity:1;" d="M 41.789062 31.757812 C 41.296875 31.757812 40.957031 31.574219 40.746094 31.40625 C 39.984375 30.789062 39.925781 29.632812 39.839844 28.03125 C 39.75 26.324219 39.640625 24.199219 38.707031 22.039062 C 36.578125 17.121094 37.371094 13.53125 38.421875 12.320312 C 38.878906 11.792969 40.984375 10.554688 42.769531 10.621094 C 43.722656 10.660156 44.503906 11.058594 45.027344 11.769531 C 45.410156 12.292969 45.527344 12.757812 45.628906 13.171875 C 45.761719 13.703125 45.875 14.160156 46.710938 14.917969 C 47.261719 15.417969 47.257812 16.109375 47.253906 16.714844 C 47.25 17.449219 47.242188 18.277344 47.988281 19.300781 C 48.792969 20.410156 49.632812 23.734375 49.234375 24.828125 C 49.144531 25.074219 48.988281 25.269531 48.789062 25.394531 C 48.5625 25.914062 48.300781 27.742188 48.300781 28.914062 C 48.300781 30.640625 45.667969 31.1875 42.484375 31.675781 L 42.132812 31.730469 C 42.011719 31.75 41.898438 31.757812 41.789062 31.757812 Z M 41.996094 30.878906 L 42.003906 30.878906 Z M 41.769531 30.03125 Z M 48.085938 23.84375 Z M 48.089844 23.84375 C 48.085938 23.84375 48.085938 23.84375 48.085938 23.84375 C 48.085938 23.84375 48.085938 23.84375 48.089844 23.84375 Z M 48.089844 23.84375 "/>
<path style=" stroke:none;fill-rule:nonzero;fill:rgb(100%,39.215686%,47.058824%);fill-opacity:1;" d="M 41.367188 29.027344 C 42.234375 30.027344 47.527344 28.453125 46.59375 25.21875 C 45.660156 21.984375 45.03125 21.839844 45.101562 20.117188 C 45.246094 16.667969 44.242188 13.433594 41.726562 13.507812 C 39.210938 13.578125 39.28125 16.597656 39.714844 18.894531 C 40.144531 21.195312 39.496094 26.871094 41.367188 29.027344 Z M 41.367188 29.027344 "/>
<path style=" stroke:none;fill-rule:nonzero;fill:rgb(97.254902%,92.156863%,78.431373%);fill-opacity:1;" d="M 40.515625 6.304688 C 39.835938 5.566406 39.617188 4.765625 39.40625 3.988281 C 39.140625 3.023438 38.839844 1.929688 37.621094 1.367188 C 33.933594 -0.335938 32.1875 0.660156 31.347656 1.148438 C 29.785156 0.132812 27.933594 -0.238281 26.320312 0.152344 C 24.851562 0.511719 23.914062 0.488281 22.621094 0.453125 C 22.210938 0.441406 21.769531 0.429688 21.28125 0.429688 C 20.96875 0.429688 20.675781 0.566406 20.457031 0.8125 C 19.863281 1.472656 19.90625 2.84375 19.988281 3.601562 C 20.179688 5.425781 26.039062 8.722656 29.128906 10.082031 C 31.160156 10.972656 33.644531 11.835938 35.664062 11.835938 C 36.621094 11.835938 37.476562 11.640625 38.125 11.160156 C 38.164062 11.132812 38.199219 11.101562 38.230469 11.066406 C 41.648438 7.539062 40.855469 6.671875 40.515625 6.304688 Z M 40.515625 6.304688 "/>
<path style=" stroke:none;fill-rule:nonzero;fill:rgb(100%,31.372549%,39.215686%);fill-opacity:1;" d="M 37 10.128906 C 38.484375 9.992188 38.726562 6.03125 37.160156 5.007812 C 35.597656 3.984375 34.574219 2.3125 32.417969 3.390625 C 30.261719 4.46875 30.53125 3.5 28.324219 2.691406 C 26.113281 1.882812 22.449219 2.527344 22.394531 3.824219 C 22.339844 5.117188 33.441406 10.453125 37 10.128906 Z M 37 10.128906 "/>
<path style=" stroke:none;fill-rule:nonzero;fill:rgb(97.254902%,92.156863%,78.431373%);fill-opacity:1;" d="M 16.710938 19.574219 C 16.421875 17.367188 15.484375 15.578125 14.066406 14.535156 C 12.96875 13.734375 11.648438 13.417969 10.34375 13.648438 C 8.855469 13.914062 7.753906 14.574219 7.074219 15.601562 C 6.066406 17.128906 6.300781 19.035156 6.53125 20.035156 C 6.757812 21.007812 6.660156 21.957031 6.566406 22.875 L 6.511719 23.390625 C 6.402344 24.605469 6.53125 24.996094 6.964844 26.28125 L 7.058594 26.566406 C 7.386719 27.554688 7.253906 27.753906 6.953125 28.1875 L 6.855469 28.332031 C 6.097656 29.46875 7.246094 32.023438 7.769531 32.546875 C 7.929688 32.707031 8.121094 32.898438 9.121094 32.898438 C 10.011719 32.898438 11.542969 32.746094 14.269531 32.28125 C 14.382812 32.261719 14.492188 32.222656 14.589844 32.160156 C 17.632812 30.210938 17.410156 24.960938 16.710938 19.574219 Z M 16.710938 19.574219 "/>
<path style=" stroke:none;fill-rule:nonzero;fill:rgb(100%,31.372549%,39.215686%);fill-opacity:1;" d="M 12.691406 16.667969 C 11.074219 15.453125 7.804688 16.957031 9.027344 19.253906 C 10.25 21.554688 10.25 22.917969 9.890625 24.644531 C 9.53125 26.371094 8.523438 29.171875 11.832031 29.890625 C 15.136719 30.609375 16.789062 28.453125 15.710938 25.21875 C 14.632812 21.984375 14.992188 18.390625 12.691406 16.667969 Z M 12.691406 16.667969 "/>
<path style=" stroke:none;fill-rule:nonzero;fill:rgb(100%,96.078431%,86.27451%);fill-opacity:1;" d="M 27.359375 35.453125 C 27.347656 35.410156 27.335938 35.371094 27.320312 35.332031 C 26.132812 32.511719 20.472656 28.273438 16.542969 28.746094 C 15.667969 28.851562 14.949219 28.871094 14.316406 28.890625 C 12.402344 28.941406 11.023438 28.980469 10.238281 31.734375 C 10.222656 31.789062 10.214844 31.84375 10.207031 31.898438 C 9.996094 34.496094 9.640625 38.925781 9.691406 39.382812 C 9.804688 40.496094 10.21875 41.3125 10.925781 41.816406 C 11.601562 42.292969 12.503906 42.429688 13.46875 42.199219 C 14.464844 41.964844 14.679688 42.167969 15.464844 42.929688 C 15.601562 43.066406 15.75 43.207031 15.910156 43.355469 C 16.519531 43.917969 17.539062 44.328125 18.78125 44.328125 C 19.488281 44.328125 20.269531 44.195312 21.089844 43.878906 C 21.632812 43.671875 22.761719 43.59375 23.753906 43.527344 C 25.90625 43.382812 27.761719 43.253906 28.113281 41.9375 C 28.550781 40.289062 27.5625 36.246094 27.359375 35.453125 Z M 27.359375 35.453125 "/>
<path style=" stroke:none;fill-rule:nonzero;fill:rgb(100%,39.215686%,47.058824%);fill-opacity:1;" d="M 25.84375 35.710938 C 25.914062 36 26.203125 41.027344 23.257812 41.027344 C 20.308594 41.027344 17.722656 38.371094 15.710938 39.015625 C 13.699219 39.664062 11.902344 37.722656 12.191406 35.28125 C 12.476562 32.835938 13.84375 30.824219 15.566406 30.824219 C 17.292969 30.824219 24.621094 30.824219 25.84375 35.710938 Z M 25.84375 35.710938 "/>
<path style=" stroke:none;fill-rule:nonzero;fill:rgb(100%,98.039216%,92.156863%);fill-opacity:1;" d="M 25.652344 42.65625 C 26.804688 43.925781 28.304688 46.453125 30.355469 45.34375 C 32.058594 44.421875 32.574219 41.714844 34.183594 41.714844 C 35.796875 41.714844 38.628906 41.042969 38.519531 39.933594 C 38.316406 37.882812 39.730469 38.757812 40.332031 37.75 C 40.9375 36.742188 40.535156 35.667969 40.535156 35.667969 C 40.535156 35.667969 36.261719 29.960938 33.675781 30.609375 C 31.089844 31.257812 25.773438 32.980469 25.484375 34.488281 C 25.195312 36 23.734375 40.542969 25.652344 42.65625 Z M 25.652344 42.65625 "/>
<path style=" stroke:none;fill-rule:nonzero;fill:rgb(100%,39.215686%,47.058824%);fill-opacity:1;" d="M 26.8125 34.023438 C 26.8125 34.023438 25.988281 43.042969 28.429688 42.539062 C 30.875 42.035156 30.800781 40.023438 32.453125 40.023438 C 34.109375 40.023438 36.839844 40.09375 36.980469 38.082031 C 37.125 36.070312 37.339844 34.058594 35.328125 32.835938 C 33.316406 31.613281 28.289062 30.753906 26.8125 34.023438 Z M 26.8125 34.023438 "/>
<path style=" stroke:none;fill-rule:nonzero;fill:rgb(97.254902%,92.156863%,78.431373%);fill-opacity:1;" d="M 42.703125 30.890625 C 42.394531 30.664062 42.335938 29.5 42.792969 27.996094 C 43.519531 25.609375 42.09375 24.734375 42.257812 23.914062 C 42.300781 23.6875 42.503906 23.347656 42.621094 23.097656 C 42.875 22.570312 43.136719 22.023438 43.242188 21.539062 C 43.703125 19.46875 38.605469 17.917969 38.554688 17.902344 C 36.910156 17.433594 32.417969 16.789062 31.398438 19.410156 C 30.5 21.726562 27.875 29.546875 31.957031 32.839844 C 32.082031 32.945312 33.484375 34.105469 35.425781 35.378906 C 36.640625 36.175781 37.761719 36.429688 38.828125 36.429688 C 39.753906 36.429688 40.636719 36.238281 41.507812 36.050781 L 41.722656 36.007812 C 42.550781 35.828125 43.164062 35.078125 43.40625 33.941406 C 43.640625 32.847656 43.519531 31.488281 42.703125 30.890625 Z M 42.703125 30.890625 "/>
<path style=" stroke:none;fill-rule:nonzero;fill:rgb(100%,31.372549%,39.215686%);fill-opacity:1;" d="M 35.652344 19.613281 C 37.230469 19.367188 40.449219 19.777344 39.804688 22.363281 C 39.15625 24.949219 39.652344 25.679688 40.449219 27.914062 C 40.855469 29.046875 41.742188 34.273438 38.347656 33.898438 C 34.953125 33.519531 32.367188 31.847656 32.417969 30.449219 C 32.472656 29.046875 33.226562 19.992188 35.652344 19.613281 Z M 35.652344 19.613281 "/>
<path style=" stroke:none;fill-rule:nonzero;fill:rgb(100%,98.039216%,92.156863%);fill-opacity:1;" d="M 39.566406 12.15625 C 39.261719 11.851562 38.972656 11.566406 38.789062 11.339844 C 38.007812 10.363281 37.566406 9.753906 37.566406 8.550781 C 37.566406 6.480469 35.898438 6.285156 34.554688 6.132812 C 34.347656 6.109375 34.128906 6.082031 33.902344 6.050781 C 33.339844 5.972656 32.894531 6.039062 32.53125 6.09375 C 32.003906 6.171875 31.738281 6.210938 31.179688 5.824219 C 30.308594 5.222656 27.847656 4.3125 25.824219 5.367188 C 25.527344 5.519531 25.347656 5.828125 25.359375 6.160156 L 25.503906 10.207031 C 25.589844 12.761719 26.644531 15.152344 28.472656 16.941406 L 32.273438 20.660156 C 32.433594 20.820312 32.652344 20.90625 32.875 20.90625 C 32.957031 20.90625 33.039062 20.894531 33.121094 20.867188 C 35.570312 20.136719 38.363281 19.367188 38.945312 19.292969 C 39.832031 19.421875 40.191406 18.410156 40.5625 17.347656 C 40.746094 16.816406 40.957031 16.210938 41.175781 15.847656 C 41.96875 14.527344 40.636719 13.210938 39.566406 12.15625 Z M 39.566406 12.15625 "/>
<path style=" stroke:none;fill-rule:nonzero;fill:rgb(100%,49.019608%,56.862745%);fill-opacity:1;" d="M 26.707031 8.941406 C 27.007812 7.875 28.96875 6.140625 30.695312 7.703125 C 32.417969 9.265625 33.496094 6.625 35.4375 9.535156 C 37.378906 12.445312 40.828125 15.894531 38.726562 16.917969 C 36.625 17.945312 32.6875 19.777344 30.15625 17.566406 C 27.621094 15.355469 26.003906 11.421875 26.707031 8.941406 Z M 26.707031 8.941406 "/>
<path style=" stroke:none;fill-rule:nonzero;fill:rgb(100%,96.078431%,86.27451%);fill-opacity:1;" d="M 25.160156 3.492188 C 24.289062 3.230469 23.660156 3.289062 23.15625 3.339844 C 22.761719 3.378906 22.539062 3.394531 22.269531 3.300781 C 20.136719 2.566406 17.976562 2.070312 16.640625 3.40625 C 16.320312 3.726562 16.121094 4.054688 15.941406 4.347656 C 15.617188 4.882812 15.402344 5.238281 14.410156 5.5 C 12.136719 6.097656 11.75 6.835938 11.75 8.753906 C 11.75 10.035156 11.53125 10.652344 10.761719 11.503906 C 9.625 12.765625 9.859375 16.289062 10.492188 16.921875 C 10.621094 17.050781 10.8125 17.242188 14.292969 18.71875 C 14.332031 18.734375 14.367188 18.75 14.40625 18.757812 C 14.539062 18.792969 16.316406 19.257812 18.503906 19.257812 C 20.359375 19.257812 22.515625 18.925781 24.222656 17.714844 C 25.953125 16.488281 26.925781 14.589844 27.117188 12.078125 C 27.175781 11.277344 27.632812 4.234375 25.160156 3.492188 Z M 25.160156 3.492188 "/>
<path style=" stroke:none;fill-rule:nonzero;fill:rgb(100%,39.215686%,47.058824%);fill-opacity:1;" d="M 24.710938 13.039062 C 24.796875 11.691406 25.09375 6.378906 22.773438 6.03125 C 20.617188 5.710938 18.246094 6.570312 16.304688 7.273438 C 13.613281 8.242188 14.257812 10.773438 13.230469 13.46875 C 12.578125 15.191406 13.824219 17.835938 18.082031 18.375 C 19.949219 18.609375 24.550781 15.625 24.710938 13.039062 Z M 24.710938 13.039062 "/>
<path style=" stroke:none;fill-rule:nonzero;fill:rgb(97.254902%,92.156863%,78.431373%);fill-opacity:1;" d="M 34.296875 16.757812 C 33.800781 15.6875 32.953125 15.289062 32.273438 14.96875 C 31.878906 14.785156 31.539062 14.625 31.332031 14.367188 C 31.285156 14.308594 31.246094 14.066406 31.21875 13.910156 C 31.097656 13.210938 30.867188 11.753906 28.519531 11.820312 C 28.132812 11.835938 28.03125 11.75 27.824219 11.589844 C 27.523438 11.355469 27.019531 10.96875 26.078125 11.167969 C 25.449219 11.300781 25.078125 11.765625 24.808594 12.101562 C 24.734375 12.195312 24.628906 12.328125 24.558594 12.390625 C 24.328125 12.351562 24.15625 12.214844 23.882812 11.988281 C 23.507812 11.675781 22.941406 11.203125 22.09375 11.367188 C 21.261719 11.527344 20.917969 11.765625 20.550781 12.0625 C 20.347656 12.226562 20.15625 12.382812 19.59375 12.574219 C 19.066406 12.753906 18.671875 13.121094 18.453125 13.640625 C 18.003906 14.710938 18.34375 16.4375 19.464844 18.769531 C 19.789062 19.445312 22.746094 23.324219 25.445312 24.4375 C 25.792969 24.578125 26.15625 24.644531 26.527344 24.644531 C 29.273438 24.644531 32.425781 21.160156 32.828125 20.703125 C 33.46875 19.945312 34.894531 18.050781 34.296875 16.757812 Z M 34.296875 16.757812 "/>
<path style=" stroke:none;fill-rule:nonzero;fill:rgb(100%,31.372549%,39.215686%);fill-opacity:1;" d="M 30.371094 20.765625 C 30.972656 19.789062 33.28125 17.277344 31.664062 16.703125 C 30.046875 16.128906 30.15625 15.839844 29.617188 14.800781 C 29.078125 13.757812 26.707031 14.691406 24.441406 14.441406 C 22.179688 14.1875 21.351562 14.042969 20.667969 14.90625 C 19.988281 15.769531 19.414062 17.890625 20.921875 19.648438 C 22.429688 21.410156 24.804688 23.261719 28.070312 22.417969 C 29.042969 22.164062 29.902344 21.519531 30.371094 20.765625 Z M 30.371094 20.765625 "/>
<path style=" stroke:none;fill-rule:nonzero;fill:rgb(100%,96.078431%,86.27451%);fill-opacity:1;" d="M 35.652344 23.007812 C 35.480469 21.304688 34.984375 20.382812 33.632812 19.785156 C 32.652344 19.351562 30.601562 19.058594 27.859375 22 C 27.804688 22.058594 27.757812 22.125 27.71875 22.199219 L 22.730469 32.050781 C 22.644531 32.222656 22.617188 32.414062 22.652344 32.601562 C 22.777344 33.246094 23.601562 35.773438 25.390625 36.335938 C 25.589844 36.398438 25.820312 36.445312 26.082031 36.445312 C 26.660156 36.445312 27.371094 36.222656 28.136719 35.476562 C 29.003906 34.628906 30.480469 33.902344 31.664062 33.320312 C 33.246094 32.539062 34.121094 32.0625 34.25 31.183594 C 34.441406 29.90625 33.6875 29.074219 34.824219 27.972656 C 35.46875 27.351562 34.832031 26.261719 34.960938 25.328125 C 35.113281 24.195312 35.707031 23.546875 35.652344 23.007812 Z M 35.652344 23.007812 "/>
<path style=" stroke:none;fill-rule:nonzero;fill:rgb(100%,39.215686%,47.058824%);fill-opacity:1;" d="M 24.191406 31.507812 C 24.234375 32.472656 25.195312 35.351562 26.8125 34.023438 C 28.429688 32.691406 29.660156 32.277344 30.695312 31.507812 C 32.097656 30.464844 31.773438 28.777344 32.347656 27.484375 C 32.921875 26.191406 34.007812 24.277344 33.632812 22.957031 C 33.1875 21.398438 31.558594 20.40625 28.035156 23.027344 C 24.515625 25.652344 24.117188 29.855469 24.191406 31.507812 Z M 24.191406 31.507812 "/>
<path style=" stroke:none;fill-rule:nonzero;fill:rgb(100%,98.039216%,92.156863%);fill-opacity:1;" d="M 25.125 29.746094 L 21.453125 18.835938 C 21.390625 18.652344 21.269531 18.496094 21.109375 18.390625 C 20.6875 18.113281 16.898438 15.703125 14.214844 17.167969 C 12.054688 18.347656 12.628906 20.335938 12.96875 21.519531 C 13.148438 22.144531 13.335938 22.789062 13.136719 23.050781 C 12.171875 24.324219 12.773438 25.996094 13.515625 27.246094 C 13.886719 27.878906 13.890625 28.644531 13.535156 29.285156 C 13.3125 29.683594 13.15625 30.132812 13.164062 30.605469 C 13.171875 31.078125 13.339844 31.761719 14.121094 32.332031 C 15.007812 32.976562 15.652344 33.710938 16.21875 34.359375 C 17.207031 35.484375 18.144531 36.554688 19.847656 36.554688 C 20.015625 36.554688 20.191406 36.542969 20.378906 36.523438 C 23.382812 36.164062 24.964844 30.859375 25.136719 30.257812 C 25.183594 30.089844 25.179688 29.910156 25.125 29.746094 Z M 25.125 29.746094 "/>
<path style=" stroke:none;fill-rule:nonzero;fill:rgb(100%,49.019608%,56.862745%);fill-opacity:1;" d="M 21.15625 20.097656 C 20.40625 19.335938 16.359375 17.675781 15.601562 18.914062 C 14.847656 20.152344 16.519531 21.984375 15.980469 23.277344 C 15.441406 24.574219 14.472656 25.113281 15.710938 26.730469 C 16.949219 28.34375 16.167969 29.128906 16.761719 30.90625 C 17.355469 32.683594 19.753906 34.21875 21.476562 32.65625 C 23.203125 31.09375 24.703125 28.945312 24.464844 27.21875 C 24.226562 25.488281 23.527344 22.523438 21.15625 20.097656 Z M 21.15625 20.097656 "/>
<path style=" stroke:none;fill-rule:nonzero;fill:rgb(100%,98.039216%,92.156863%);fill-opacity:1;" d="M 26.785156 22.121094 C 26.40625 22.0625 26.042969 21.925781 25.773438 21.800781 C 25.089844 21.429688 25.539062 18.464844 22.960938 17.808594 C 21.859375 17.527344 20.691406 17.917969 19.914062 18.808594 C 19.042969 19.800781 18.851562 21.230469 19.398438 22.617188 C 19.726562 23.46875 21.351562 27.355469 23.699219 27.355469 C 23.945312 27.355469 24.203125 27.3125 24.464844 27.21875 C 27.027344 26.296875 27.492188 23.226562 27.511719 23.09375 C 27.578125 22.625 27.253906 22.191406 26.785156 22.121094 Z M 26.785156 22.121094 "/>
<path style=" stroke:none;fill-rule:nonzero;fill:rgb(100%,49.019608%,56.862745%);fill-opacity:1;" d="M 26.132812 22.992188 C 25.515625 22.621094 24.335938 21.914062 24.117188 20.800781 C 23.902344 19.6875 22.429688 18.570312 21.171875 19.433594 C 19.914062 20.296875 20.273438 21.949219 20.957031 23.136719 C 21.640625 24.320312 23.183594 26.011719 24.835938 25.398438 C 26.492188 24.789062 26.851562 23.421875 26.132812 22.992188 Z M 26.132812 22.992188 "/>
<path style=" stroke:none;fill-rule:nonzero;fill:rgb(100%,96.078431%,86.27451%);fill-opacity:1;" d="M 25.605469 29.363281 L 24.738281 25.78125 C 24.640625 25.378906 24.269531 25.109375 23.851562 25.125 C 23.445312 25.148438 22.871094 24.480469 22.589844 23.203125 C 22.507812 22.832031 22.195312 22.167969 21.015625 21.859375 C 19.96875 21.585938 18.042969 21.609375 17.222656 22.523438 C 16.847656 22.941406 16.75 23.488281 16.953125 24.019531 C 17.398438 25.175781 18.027344 26.285156 18.820312 27.6875 C 19.03125 28.0625 19.253906 28.453125 19.484375 28.871094 C 20.300781 30.339844 21.425781 30.6875 22.535156 30.6875 C 23.070312 30.6875 23.605469 30.605469 24.097656 30.53125 C 24.351562 30.492188 24.605469 30.453125 24.867188 30.421875 C 25.113281 30.394531 25.332031 30.261719 25.472656 30.058594 C 25.613281 29.859375 25.660156 29.605469 25.605469 29.363281 Z M 25.605469 29.363281 "/>
<path style=" stroke:none;fill-rule:nonzero;fill:rgb(100%,39.215686%,47.058824%);fill-opacity:1;" d="M 24.726562 25.738281 C 24.628906 25.328125 24.238281 25.140625 23.816406 25.125 C 23.414062 25.109375 22.863281 24.445312 22.589844 23.203125 C 22.542969 22.984375 22.40625 22.660156 22.0625 22.371094 C 20.550781 22.390625 19.621094 23.359375 20.398438 25.488281 C 21.207031 27.699219 22.234375 28.507812 23.472656 28.398438 C 23.472656 28.398438 23.773438 28.105469 24.171875 27.707031 C 24.6875 27.195312 24.898438 26.445312 24.726562 25.738281 Z M 24.726562 25.738281 "/>
<path style=" stroke:none;fill-rule:nonzero;fill:rgb(97.254902%,92.156863%,78.431373%);fill-opacity:1;" d="M 30.53125 23.417969 C 29.945312 22.332031 28.769531 21.828125 27.464844 22.113281 C 27.371094 22.128906 27.023438 22.152344 26.773438 22.117188 C 26.46875 22.078125 26.167969 22.199219 25.980469 22.441406 L 23.1875 26.019531 C 23.054688 26.1875 22.992188 26.402344 23.007812 26.617188 C 23.210938 29.179688 24.277344 30.164062 25.132812 30.539062 C 25.519531 30.710938 25.917969 30.78125 26.304688 30.78125 C 27.105469 30.78125 27.867188 30.472656 28.390625 30.066406 C 29.191406 29.4375 29.390625 28.675781 29.535156 28.121094 C 29.644531 27.714844 29.707031 27.492188 29.894531 27.308594 C 30.929688 26.300781 31.199219 24.664062 30.53125 23.417969 Z M 30.53125 23.417969 "/>
<path style=" stroke:none;fill-rule:nonzero;fill:rgb(100%,31.372549%,39.215686%);fill-opacity:1;" d="M 28.933594 24.355469 C 28.679688 23.515625 27.25 22.859375 25.320312 23.285156 L 23.539062 25.570312 C 23.679688 26.707031 24.101562 28.882812 25.269531 28.882812 C 26.851562 28.882812 26.726562 27.5 27.496094 26.835938 C 28.289062 26.152344 29.292969 25.542969 28.933594 24.355469 Z M 28.933594 24.355469 "/>
</g>
</svg>
