<?xml version="1.0" encoding="UTF-8"?>
<svg xmlns="http://www.w3.org/2000/svg" xmlns:xlink="http://www.w3.org/1999/xlink" width="50pt" height="50pt" viewBox="0 0 50 50" version="1.1">
<g id="surface1">
<path style=" stroke:none;fill-rule:nonzero;fill:rgb(78.431373%,64.705882%,100%);fill-opacity:1;" d="M 25 0 C 24.097656 0 23.238281 0.386719 22.640625 1.0625 C 22.046875 1.738281 21.765625 2.640625 21.878906 3.535156 L 23.09375 13.25 C 23.148438 13.683594 23.515625 14.003906 23.949219 14.003906 C 23.953125 14.003906 23.960938 14.003906 23.96875 14.003906 L 26.078125 13.957031 C 26.503906 13.949219 26.859375 13.628906 26.914062 13.203125 L 28.121094 3.535156 C 28.234375 2.640625 27.953125 1.738281 27.359375 1.0625 C 26.761719 0.386719 25.902344 0 25 0 Z M 25 0 "/>
<path style=" stroke:none;fill-rule:nonzero;fill:rgb(78.431373%,64.705882%,100%);fill-opacity:1;" d="M 26.902344 36.710938 C 26.847656 36.265625 26.4375 35.933594 26.015625 35.957031 L 23.914062 36.03125 C 23.492188 36.046875 23.140625 36.367188 23.089844 36.785156 L 21.878906 46.464844 C 21.765625 47.359375 22.046875 48.261719 22.640625 48.9375 C 23.238281 49.613281 24.097656 50 25 50 C 25.902344 50 26.761719 49.613281 27.359375 48.9375 C 27.953125 48.261719 28.234375 47.359375 28.121094 46.464844 Z M 26.902344 36.710938 "/>
<path style=" stroke:none;fill-rule:nonzero;fill:rgb(78.431373%,64.705882%,100%);fill-opacity:1;" d="M 13.902344 26.0625 L 13.902344 23.9375 C 13.902344 23.5 13.578125 23.136719 13.148438 23.082031 L 3.535156 21.878906 C 2.640625 21.765625 1.738281 22.046875 1.0625 22.640625 C 0.386719 23.238281 0 24.097656 0 25 C 0 25.902344 0.386719 26.761719 1.0625 27.359375 C 1.640625 27.867188 2.382812 28.144531 3.144531 28.144531 C 3.273438 28.144531 3.40625 28.136719 3.535156 28.121094 L 13.148438 26.917969 C 13.578125 26.867188 13.902344 26.5 13.902344 26.0625 Z M 13.902344 26.0625 "/>
<path style=" stroke:none;fill-rule:nonzero;fill:rgb(78.431373%,64.705882%,100%);fill-opacity:1;" d="M 48.9375 22.640625 C 48.261719 22.046875 47.363281 21.765625 46.464844 21.878906 L 36.796875 23.085938 C 36.363281 23.140625 36.039062 23.511719 36.039062 23.945312 L 36.046875 26.0625 C 36.050781 26.496094 36.371094 26.859375 36.804688 26.914062 L 46.464844 28.121094 C 46.59375 28.136719 46.726562 28.144531 46.855469 28.144531 C 47.617188 28.144531 48.359375 27.867188 48.9375 27.359375 C 49.613281 26.761719 50 25.902344 50 25 C 50 24.097656 49.613281 23.238281 48.9375 22.640625 Z M 48.9375 22.640625 "/>
<path style=" stroke:none;fill-rule:nonzero;fill:rgb(78.431373%,64.705882%,100%);fill-opacity:1;" d="M 33.511719 17.917969 C 33.683594 18.105469 33.917969 18.203125 34.152344 18.203125 C 34.339844 18.203125 34.523438 18.140625 34.679688 18.019531 L 42.382812 12.027344 C 43.097656 11.476562 43.535156 10.640625 43.59375 9.742188 C 43.648438 8.839844 43.316406 7.960938 42.675781 7.324219 C 42.039062 6.683594 41.160156 6.351562 40.257812 6.40625 C 39.359375 6.464844 38.523438 6.902344 37.972656 7.617188 L 32.046875 15.234375 C 31.789062 15.5625 31.808594 16.027344 32.085938 16.339844 Z M 33.511719 17.917969 "/>
<path style=" stroke:none;fill-rule:nonzero;fill:rgb(78.431373%,64.705882%,100%);fill-opacity:1;" d="M 16.425781 32.078125 C 16.117188 31.769531 15.628906 31.738281 15.285156 32.007812 L 7.617188 37.972656 C 6.902344 38.523438 6.464844 39.359375 6.40625 40.257812 C 6.351562 41.160156 6.683594 42.039062 7.324219 42.675781 C 7.914062 43.269531 8.714844 43.597656 9.546875 43.597656 C 9.613281 43.597656 9.675781 43.597656 9.742188 43.59375 C 10.640625 43.535156 11.476562 43.097656 12.027344 42.382812 L 17.988281 34.722656 C 18.253906 34.378906 18.226562 33.890625 17.921875 33.585938 Z M 16.425781 32.078125 "/>
<path style=" stroke:none;fill-rule:nonzero;fill:rgb(78.431373%,64.705882%,100%);fill-opacity:1;" d="M 12.027344 7.617188 C 11.476562 6.902344 10.640625 6.464844 9.742188 6.40625 C 8.84375 6.351562 7.960938 6.683594 7.324219 7.324219 C 6.683594 7.960938 6.351562 8.839844 6.40625 9.742188 C 6.464844 10.640625 6.902344 11.476562 7.617188 12.027344 L 15.304688 18.007812 C 15.460938 18.128906 15.648438 18.191406 15.832031 18.191406 C 16.054688 18.191406 16.277344 18.105469 16.445312 17.9375 L 17.9375 16.433594 C 18.242188 16.128906 18.269531 15.640625 18.003906 15.296875 Z M 12.027344 7.617188 "/>
<path style=" stroke:none;fill-rule:nonzero;fill:rgb(78.431373%,64.705882%,100%);fill-opacity:1;" d="M 42.382812 37.972656 L 34.683594 31.984375 C 34.332031 31.710938 33.828125 31.75 33.523438 32.078125 L 32.082031 33.632812 C 31.792969 33.941406 31.773438 34.414062 32.03125 34.75 L 37.972656 42.382812 C 38.523438 43.097656 39.359375 43.535156 40.257812 43.59375 C 40.324219 43.597656 40.390625 43.597656 40.453125 43.597656 C 41.285156 43.597656 42.085938 43.269531 42.679688 42.675781 C 43.316406 42.039062 43.648438 41.160156 43.59375 40.257812 C 43.535156 39.359375 43.097656 38.523438 42.382812 37.972656 Z M 42.382812 37.972656 "/>
<path style=" stroke:none;fill-rule:nonzero;fill:rgb(70.588235%,62.745098%,100%);fill-opacity:1;" d="M 44.816406 30.671875 C 44.410156 29.871094 43.679688 29.285156 42.804688 29.066406 L 30.089844 25.90625 C 30.140625 25.609375 30.171875 25.308594 30.171875 25 C 30.171875 24.691406 30.140625 24.390625 30.089844 24.09375 L 42.804688 20.933594 C 43.679688 20.714844 44.410156 20.128906 44.816406 19.328125 C 45.222656 18.523438 45.257812 17.585938 44.910156 16.75 C 44.566406 15.917969 43.878906 15.28125 43.023438 15 C 42.171875 14.714844 41.238281 14.820312 40.46875 15.285156 L 29.238281 22.039062 C 28.890625 21.542969 28.457031 21.109375 27.960938 20.761719 L 34.714844 9.53125 C 35.175781 8.761719 35.28125 7.828125 35 6.976562 C 34.71875 6.121094 34.082031 5.433594 33.242188 5.085938 C 32.414062 4.742188 31.476562 4.777344 30.671875 5.183594 C 29.871094 5.589844 29.285156 6.320312 29.066406 7.195312 L 25.90625 19.910156 C 25.609375 19.859375 25.308594 19.828125 25 19.828125 C 24.691406 19.828125 24.390625 19.859375 24.09375 19.910156 L 20.929688 7.195312 C 20.714844 6.320312 20.128906 5.589844 19.328125 5.183594 C 18.523438 4.777344 17.585938 4.742188 16.75 5.089844 C 15.917969 5.433594 15.28125 6.121094 15 6.976562 C 14.71875 7.828125 14.820312 8.761719 15.285156 9.53125 L 22.039062 20.761719 C 21.542969 21.109375 21.109375 21.542969 20.761719 22.039062 L 9.53125 15.285156 C 8.761719 14.820312 7.828125 14.71875 6.976562 15 C 6.121094 15.28125 5.433594 15.917969 5.085938 16.757812 C 4.742188 17.585938 4.777344 18.523438 5.183594 19.328125 C 5.589844 20.128906 6.320312 20.714844 7.195312 20.933594 L 19.910156 24.09375 C 19.859375 24.390625 19.828125 24.691406 19.828125 25 C 19.828125 25.308594 19.859375 25.609375 19.910156 25.90625 L 7.195312 29.070312 C 6.320312 29.285156 5.589844 29.871094 5.183594 30.671875 C 4.777344 31.476562 4.742188 32.414062 5.089844 33.25 C 5.433594 34.082031 6.121094 34.71875 6.976562 35 C 7.292969 35.105469 7.617188 35.15625 7.941406 35.15625 C 8.496094 35.15625 9.046875 35.007812 9.53125 34.714844 L 20.761719 27.960938 C 21.109375 28.457031 21.542969 28.890625 22.039062 29.238281 L 15.285156 40.46875 C 14.820312 41.238281 14.71875 42.171875 15 43.023438 C 15.28125 43.878906 15.917969 44.566406 16.757812 44.914062 C 17.136719 45.070312 17.535156 45.148438 17.9375 45.148438 C 18.414062 45.148438 18.890625 45.035156 19.328125 44.816406 C 20.128906 44.410156 20.714844 43.679688 20.933594 42.804688 L 24.09375 30.089844 C 24.390625 30.140625 24.691406 30.171875 25 30.171875 C 25.308594 30.171875 25.609375 30.140625 25.90625 30.089844 L 29.066406 42.804688 L 29.066406 42.808594 C 29.285156 43.679688 29.871094 44.410156 30.671875 44.816406 C 31.109375 45.035156 31.582031 45.148438 32.0625 45.148438 C 32.464844 45.148438 32.867188 45.070312 33.25 44.910156 C 34.082031 44.566406 34.71875 43.878906 35 43.023438 C 35.28125 42.171875 35.179688 41.238281 34.714844 40.46875 L 27.960938 29.238281 C 28.457031 28.890625 28.890625 28.457031 29.238281 27.960938 L 40.46875 34.714844 C 40.953125 35.007812 41.503906 35.15625 42.058594 35.15625 C 42.382812 35.15625 42.710938 35.105469 43.023438 35 C 43.878906 34.71875 44.566406 34.082031 44.914062 33.242188 C 45.257812 32.414062 45.222656 31.476562 44.816406 30.671875 Z M 44.816406 30.671875 "/>
<path style=" stroke:none;fill-rule:nonzero;fill:rgb(62.745098%,54.901961%,100%);fill-opacity:1;" d="M 36.835938 22.703125 C 36.136719 22.140625 35.234375 21.925781 34.359375 22.113281 L 29.804688 23.089844 C 29.277344 21.769531 28.230469 20.722656 26.910156 20.195312 L 27.886719 15.640625 C 28.074219 14.765625 27.859375 13.863281 27.296875 13.164062 C 26.734375 12.46875 25.894531 12.070312 25 12.070312 C 24.105469 12.070312 23.265625 12.46875 22.703125 13.164062 C 22.140625 13.863281 21.925781 14.765625 22.113281 15.640625 L 23.089844 20.195312 C 21.769531 20.722656 20.722656 21.769531 20.195312 23.089844 L 15.640625 22.113281 C 14.761719 21.925781 13.863281 22.140625 13.164062 22.703125 C 12.46875 23.265625 12.070312 24.105469 12.070312 25 C 12.070312 25.894531 12.46875 26.734375 13.164062 27.296875 C 13.863281 27.859375 14.765625 28.074219 15.640625 27.886719 L 20.195312 26.910156 C 20.722656 28.230469 21.769531 29.277344 23.089844 29.804688 L 22.113281 34.359375 C 21.925781 35.234375 22.140625 36.136719 22.703125 36.835938 C 23.265625 37.53125 24.105469 37.929688 25 37.929688 C 25.894531 37.929688 26.734375 37.53125 27.296875 36.835938 C 27.859375 36.136719 28.074219 35.234375 27.886719 34.359375 L 26.910156 29.804688 C 28.230469 29.277344 29.277344 28.230469 29.804688 26.910156 L 34.359375 27.886719 C 35.238281 28.074219 36.136719 27.859375 36.835938 27.296875 C 37.53125 26.730469 37.929688 25.894531 37.929688 25 C 37.929688 24.105469 37.53125 23.265625 36.835938 22.703125 Z M 36.835938 22.703125 "/>
<path style=" stroke:none;fill-rule:nonzero;fill:rgb(56.862745%,47.058824%,96.078431%);fill-opacity:1;" d="M 33.660156 29.578125 L 29.75 27.046875 C 30.019531 26.417969 30.171875 25.726562 30.171875 25 C 30.171875 24.273438 30.019531 23.582031 29.75 22.953125 L 33.660156 20.421875 C 34.410156 19.9375 34.898438 19.144531 34.992188 18.253906 C 35.085938 17.363281 34.777344 16.488281 34.144531 15.855469 C 33.511719 15.222656 32.636719 14.917969 31.746094 15.007812 C 30.851562 15.101562 30.0625 15.585938 29.578125 16.339844 L 27.046875 20.25 C 26.417969 19.980469 25.726562 19.828125 25 19.828125 C 24.273438 19.828125 23.582031 19.980469 22.953125 20.25 L 20.421875 16.339844 C 19.9375 15.589844 19.144531 15.101562 18.253906 15.007812 C 17.363281 14.914062 16.488281 15.222656 15.855469 15.855469 C 15.222656 16.488281 14.914062 17.363281 15.007812 18.253906 C 15.101562 19.148438 15.585938 19.9375 16.339844 20.421875 L 20.25 22.953125 C 19.980469 23.582031 19.828125 24.273438 19.828125 25 C 19.828125 25.726562 19.980469 26.417969 20.25 27.046875 L 16.339844 29.578125 C 15.589844 30.0625 15.101562 30.855469 15.007812 31.746094 C 14.914062 32.636719 15.222656 33.511719 15.855469 34.144531 C 16.492188 34.777344 17.367188 35.085938 18.253906 34.992188 C 19.148438 34.898438 19.9375 34.410156 20.421875 33.660156 L 22.953125 29.75 C 23.582031 30.019531 24.273438 30.171875 25 30.171875 C 25.726562 30.171875 26.417969 30.019531 27.046875 29.75 L 29.578125 33.660156 C 30.0625 34.410156 30.855469 34.898438 31.746094 34.992188 C 31.851562 35.003906 31.953125 35.007812 32.058594 35.007812 C 32.839844 35.007812 33.585938 34.703125 34.144531 34.144531 C 34.777344 33.511719 35.085938 32.636719 34.992188 31.746094 C 34.898438 30.851562 34.414062 30.0625 33.660156 29.578125 Z M 33.660156 29.578125 "/>
<path style=" stroke:none;fill-rule:nonzero;fill:rgb(100%,84.313725%,15.686275%);fill-opacity:1;" d="M 30.171875 25 C 30.171875 27.855469 27.855469 30.171875 25 30.171875 C 22.144531 30.171875 19.828125 27.855469 19.828125 25 C 19.828125 22.144531 22.144531 19.828125 25 19.828125 C 27.855469 19.828125 30.171875 22.144531 30.171875 25 Z M 30.171875 25 "/>
<path style=" stroke:none;fill-rule:nonzero;fill:rgb(70.588235%,82.352941%,27.45098%);fill-opacity:1;" d="M 26.722656 25 C 26.722656 25.953125 25.953125 26.722656 25 26.722656 C 24.046875 26.722656 23.277344 25.953125 23.277344 25 C 23.277344 24.046875 24.046875 23.277344 25 23.277344 C 25.953125 23.277344 26.722656 24.046875 26.722656 25 Z M 26.722656 25 "/>
</g>
</svg>
