<?xml version="1.0" encoding="UTF-8"?>
<svg xmlns="http://www.w3.org/2000/svg" xmlns:xlink="http://www.w3.org/1999/xlink" width="50pt" height="50pt" viewBox="0 0 50 50" version="1.1">
<g id="surface1">
<path style=" stroke:none;fill-rule:nonzero;fill:rgb(96.078431%,74.509804%,23.529412%);fill-opacity:1;" d="M 37.070312 25 C 37.070312 31.664062 31.664062 37.070312 25 37.070312 C 18.335938 37.070312 12.929688 31.664062 12.929688 25 C 12.929688 18.335938 18.335938 12.929688 25 12.929688 C 31.664062 12.929688 37.070312 18.335938 37.070312 25 Z M 37.070312 25 "/>
<path style=" stroke:none;fill-rule:nonzero;fill:rgb(82.352941%,64.705882%,23.529412%);fill-opacity:1;" d="M 33.621094 25 C 33.621094 29.761719 29.761719 33.621094 25 33.621094 C 20.238281 33.621094 16.378906 29.761719 16.378906 25 C 16.378906 20.238281 20.238281 16.378906 25 16.378906 C 29.761719 16.378906 33.621094 20.238281 33.621094 25 Z M 33.621094 25 "/>
<path style=" stroke:none;fill-rule:nonzero;fill:rgb(76.470588%,73.72549%,25.490196%);fill-opacity:1;" d="M 30.171875 25 C 30.171875 27.855469 27.855469 30.171875 25 30.171875 C 22.144531 30.171875 19.828125 27.855469 19.828125 25 C 19.828125 22.144531 22.144531 19.828125 25 19.828125 C 27.855469 19.828125 30.171875 22.144531 30.171875 25 Z M 30.171875 25 "/>
<path style=" stroke:none;fill-rule:nonzero;fill:rgb(100%,90.196078%,31.372549%);fill-opacity:1;" d="M 25 16.378906 C 24.785156 16.378906 24.574219 16.300781 24.40625 16.144531 C 22.617188 14.445312 21.550781 11.472656 21.550781 8.191406 C 21.550781 4.90625 22.617188 1.933594 24.40625 0.238281 C 24.738281 -0.078125 25.261719 -0.078125 25.59375 0.238281 C 27.382812 1.933594 28.449219 4.90625 28.449219 8.191406 C 28.449219 11.472656 27.382812 14.445312 25.59375 16.144531 C 25.425781 16.300781 25.214844 16.378906 25 16.378906 Z M 25 16.378906 "/>
<path style=" stroke:none;fill-rule:nonzero;fill:rgb(100%,90.196078%,31.372549%);fill-opacity:1;" d="M 25 50 C 24.785156 50 24.574219 49.921875 24.40625 49.761719 C 22.617188 48.066406 21.550781 45.09375 21.550781 41.808594 C 21.550781 38.527344 22.617188 35.554688 24.40625 33.855469 C 24.738281 33.542969 25.261719 33.542969 25.59375 33.855469 C 27.382812 35.554688 28.449219 38.527344 28.449219 41.808594 C 28.449219 45.09375 27.382812 48.066406 25.59375 49.761719 C 25.425781 49.921875 25.214844 50 25 50 Z M 25 50 "/>
<path style=" stroke:none;fill-rule:nonzero;fill:rgb(100%,90.196078%,31.372549%);fill-opacity:1;" d="M 8.191406 28.449219 C 4.90625 28.449219 1.933594 27.382812 0.238281 25.59375 C -0.078125 25.261719 -0.078125 24.738281 0.238281 24.40625 C 1.933594 22.617188 4.90625 21.550781 8.191406 21.550781 C 11.472656 21.550781 14.445312 22.617188 16.144531 24.40625 C 16.457031 24.738281 16.457031 25.261719 16.144531 25.59375 C 14.445312 27.382812 11.472656 28.449219 8.191406 28.449219 Z M 8.191406 28.449219 "/>
<path style=" stroke:none;fill-rule:nonzero;fill:rgb(100%,90.196078%,31.372549%);fill-opacity:1;" d="M 41.808594 28.449219 C 38.527344 28.449219 35.554688 27.382812 33.855469 25.59375 C 33.542969 25.261719 33.542969 24.738281 33.855469 24.40625 C 35.554688 22.617188 38.527344 21.550781 41.808594 21.550781 C 45.09375 21.550781 48.066406 22.617188 49.761719 24.40625 C 50.078125 24.738281 50.078125 25.261719 49.761719 25.59375 C 48.066406 27.382812 45.09375 28.449219 41.808594 28.449219 Z M 41.808594 28.449219 "/>
<path style=" stroke:none;fill-rule:nonzero;fill:rgb(100%,90.196078%,31.372549%);fill-opacity:1;" d="M 18.144531 19.160156 C 15.722656 19.160156 12.945312 17.820312 10.675781 15.550781 C 8.351562 13.230469 7.003906 10.371094 7.070312 7.910156 C 7.082031 7.449219 7.449219 7.082031 7.910156 7.070312 C 10.378906 7.003906 13.230469 8.351562 15.550781 10.675781 C 17.875 12.996094 19.222656 15.855469 19.15625 18.316406 C 19.144531 18.777344 18.777344 19.144531 18.316406 19.15625 C 18.261719 19.15625 18.203125 19.160156 18.144531 19.160156 Z M 18.144531 19.160156 "/>
<path style=" stroke:none;fill-rule:nonzero;fill:rgb(100%,90.196078%,31.372549%);fill-opacity:1;" d="M 41.917969 42.933594 C 39.496094 42.933594 36.71875 41.59375 34.449219 39.324219 C 32.125 37.003906 30.777344 34.144531 30.84375 31.683594 C 30.855469 31.222656 31.222656 30.855469 31.683594 30.84375 C 34.128906 30.773438 37.003906 32.125 39.324219 34.449219 C 41.648438 36.769531 42.996094 39.628906 42.929688 42.089844 C 42.917969 42.550781 42.550781 42.917969 42.089844 42.929688 C 42.035156 42.929688 41.976562 42.933594 41.917969 42.933594 Z M 41.917969 42.933594 "/>
<path style=" stroke:none;fill-rule:nonzero;fill:rgb(100%,90.196078%,31.372549%);fill-opacity:1;" d="M 8.082031 42.933594 C 8.023438 42.933594 7.964844 42.929688 7.910156 42.929688 C 7.449219 42.917969 7.082031 42.550781 7.070312 42.089844 C 7.003906 39.628906 8.351562 36.769531 10.675781 34.449219 C 12.996094 32.125 15.855469 30.773438 18.316406 30.84375 C 18.777344 30.855469 19.144531 31.222656 19.15625 31.683594 C 19.222656 34.144531 17.875 37.003906 15.550781 39.324219 C 13.285156 41.59375 10.503906 42.933594 8.082031 42.933594 Z M 8.082031 42.933594 "/>
<path style=" stroke:none;fill-rule:nonzero;fill:rgb(100%,90.196078%,31.372549%);fill-opacity:1;" d="M 31.855469 19.160156 C 31.796875 19.160156 31.738281 19.15625 31.683594 19.15625 C 31.222656 19.144531 30.855469 18.777344 30.84375 18.316406 C 30.777344 15.855469 32.125 12.996094 34.449219 10.675781 C 36.769531 8.351562 39.621094 6.992188 42.089844 7.070312 C 42.550781 7.082031 42.917969 7.453125 42.929688 7.910156 C 42.996094 10.371094 41.648438 13.230469 39.324219 15.550781 C 37.054688 17.820312 34.277344 19.160156 31.855469 19.160156 Z M 31.855469 19.160156 "/>
<path style=" stroke:none;fill-rule:nonzero;fill:rgb(100%,84.313725%,25.490196%);fill-opacity:1;" d="M 21.371094 17.101562 C 21.269531 17.101562 21.164062 17.082031 21.0625 17.042969 C 18.761719 16.160156 16.636719 13.824219 15.382812 10.789062 C 14.125 7.753906 13.972656 4.601562 14.976562 2.347656 C 15.160156 1.929688 15.640625 1.726562 16.070312 1.894531 C 18.371094 2.777344 20.496094 5.117188 21.753906 8.148438 C 23.007812 11.183594 23.160156 14.339844 22.160156 16.589844 C 22.015625 16.910156 21.703125 17.101562 21.371094 17.101562 Z M 21.371094 17.101562 "/>
<path style=" stroke:none;fill-rule:nonzero;fill:rgb(100%,84.313725%,25.490196%);fill-opacity:1;" d="M 34.238281 48.164062 C 34.132812 48.164062 34.03125 48.144531 33.929688 48.105469 C 31.628906 47.222656 29.503906 44.882812 28.246094 41.851562 C 26.992188 38.816406 26.839844 35.660156 27.839844 33.410156 C 28.027344 32.992188 28.507812 32.789062 28.9375 32.957031 C 31.238281 33.839844 33.363281 36.175781 34.617188 39.210938 C 35.875 42.246094 36.027344 45.402344 35.023438 47.652344 C 34.882812 47.972656 34.566406 48.164062 34.238281 48.164062 Z M 34.238281 48.164062 "/>
<path style=" stroke:none;fill-rule:nonzero;fill:rgb(100%,84.313725%,25.490196%);fill-opacity:1;" d="M 5.742188 35.683594 C 4.496094 35.683594 3.335938 35.464844 2.347656 35.023438 C 1.929688 34.839844 1.730469 34.355469 1.894531 33.929688 C 2.777344 31.628906 5.117188 29.503906 8.148438 28.246094 C 11.183594 26.988281 14.339844 26.839844 16.589844 27.839844 C 17.007812 28.027344 17.207031 28.507812 17.042969 28.9375 C 16.160156 31.238281 13.824219 33.363281 10.789062 34.617188 C 9.085938 35.324219 7.34375 35.683594 5.742188 35.683594 Z M 5.742188 35.683594 "/>
<path style=" stroke:none;fill-rule:nonzero;fill:rgb(100%,84.313725%,25.490196%);fill-opacity:1;" d="M 36.804688 22.816406 C 35.558594 22.816406 34.398438 22.597656 33.410156 22.160156 C 32.992188 21.972656 32.792969 21.492188 32.957031 21.0625 C 33.839844 18.761719 36.175781 16.636719 39.210938 15.382812 C 42.246094 14.125 45.398438 13.972656 47.652344 14.976562 C 48.070312 15.160156 48.269531 15.644531 48.105469 16.070312 C 47.222656 18.371094 44.882812 20.496094 41.851562 21.753906 C 40.144531 22.457031 38.402344 22.816406 36.804688 22.816406 Z M 36.804688 22.816406 "/>
<path style=" stroke:none;fill-rule:nonzero;fill:rgb(100%,84.313725%,25.490196%);fill-opacity:1;" d="M 13.195312 22.816406 C 11.597656 22.816406 9.855469 22.457031 8.148438 21.753906 C 5.117188 20.496094 2.777344 18.371094 1.894531 16.070312 C 1.730469 15.644531 1.929688 15.160156 2.347656 14.976562 C 4.597656 13.972656 7.753906 14.125 10.789062 15.382812 C 13.824219 16.636719 16.160156 18.761719 17.042969 21.0625 C 17.207031 21.492188 17.007812 21.972656 16.589844 22.160156 C 15.601562 22.597656 14.441406 22.816406 13.195312 22.816406 Z M 13.195312 22.816406 "/>
<path style=" stroke:none;fill-rule:nonzero;fill:rgb(100%,84.313725%,25.490196%);fill-opacity:1;" d="M 44.257812 35.683594 C 42.65625 35.683594 40.914062 35.324219 39.210938 34.617188 C 36.175781 33.363281 33.839844 31.238281 32.957031 28.9375 C 32.792969 28.511719 32.992188 28.027344 33.410156 27.839844 C 35.660156 26.839844 38.816406 26.992188 41.851562 28.246094 C 44.882812 29.503906 47.222656 31.628906 48.105469 33.929688 C 48.269531 34.355469 48.070312 34.839844 47.652344 35.023438 C 46.664062 35.464844 45.503906 35.683594 44.257812 35.683594 Z M 44.257812 35.683594 "/>
<path style=" stroke:none;fill-rule:nonzero;fill:rgb(100%,84.313725%,25.490196%);fill-opacity:1;" d="M 15.761719 48.164062 C 15.433594 48.164062 15.117188 47.972656 14.976562 47.652344 C 13.972656 45.402344 14.125 42.246094 15.382812 39.210938 C 16.636719 36.175781 18.761719 33.839844 21.0625 32.957031 C 21.488281 32.792969 21.972656 32.992188 22.160156 33.410156 C 23.160156 35.660156 23.007812 38.816406 21.753906 41.851562 C 20.496094 44.882812 18.371094 47.222656 16.070312 48.105469 C 15.96875 48.144531 15.867188 48.164062 15.761719 48.164062 Z M 15.761719 48.164062 "/>
<path style=" stroke:none;fill-rule:nonzero;fill:rgb(100%,84.313725%,25.490196%);fill-opacity:1;" d="M 28.628906 17.101562 C 28.296875 17.101562 27.984375 16.910156 27.839844 16.589844 C 26.839844 14.339844 26.992188 11.183594 28.246094 8.148438 C 29.503906 5.117188 31.628906 2.777344 33.929688 1.894531 C 34.355469 1.730469 34.839844 1.929688 35.023438 2.347656 C 36.027344 4.601562 35.875 7.753906 34.617188 10.789062 C 33.363281 13.824219 31.238281 16.160156 28.9375 17.042969 C 28.835938 17.082031 28.730469 17.101562 28.628906 17.101562 Z M 28.628906 17.101562 "/>
<path style=" stroke:none;fill-rule:nonzero;fill:rgb(70.588235%,82.352941%,27.45098%);fill-opacity:1;" d="M 28.449219 25 C 28.449219 26.902344 26.902344 28.449219 25 28.449219 C 23.09375 28.449219 21.550781 26.902344 21.550781 25 C 21.550781 23.09375 23.09375 21.550781 25 21.550781 C 26.902344 21.550781 28.449219 23.09375 28.449219 25 Z M 28.449219 25 "/>
</g>
</svg>
