<?xml version="1.0" encoding="UTF-8"?>
<svg xmlns="http://www.w3.org/2000/svg" xmlns:xlink="http://www.w3.org/1999/xlink" width="50pt" height="50pt" viewBox="0 0 50 50" version="1.1">
<g id="surface1">
<path style=" stroke:none;fill-rule:nonzero;fill:rgb(100%,44.705882%,54.509804%);fill-opacity:1;" d="M 19.082031 35.242188 C 7.722656 54.917969 -9.554688 25 13.171875 25 C -9.554688 25 7.722656 -4.917969 19.082031 14.757812 C 7.722656 -4.917969 42.269531 -4.917969 30.90625 14.757812 C 42.269531 -4.917969 59.542969 25 36.820312 25 C 59.542969 25 42.269531 54.917969 30.90625 35.242188 C 42.269531 54.917969 7.722656 54.917969 19.082031 35.242188 Z M 19.082031 35.242188 "/>
<path style=" stroke:none;fill-rule:nonzero;fill:rgb(100%,24.705882%,38.431373%);fill-opacity:1;" d="M 36.820312 24.984375 L 25.296875 24.832031 L 25.304688 24.820312 L 25.292969 24.820312 L 30.90625 14.757812 C 42.269531 -4.917969 7.722656 -4.917969 19.082031 14.757812 L 24.699219 24.824219 L 24.6875 24.824219 L 24.691406 24.832031 L 13.171875 25.039062 C -9.550781 25.113281 7.820312 54.976562 19.117188 35.261719 L 24.992188 25.347656 L 24.996094 25.355469 L 25 25.347656 L 30.921875 35.234375 C 42.304688 54.898438 59.542969 24.957031 36.820312 24.984375 Z M 36.820312 24.984375 "/>
<path style=" stroke:none;fill-rule:nonzero;fill:rgb(100%,4.705882%,21.960784%);fill-opacity:1;" d="M 24.996094 40.511719 C 24.574219 40.511719 24.230469 40.851562 24.230469 41.277344 L 24.230469 44.488281 C 24.230469 44.914062 24.574219 45.253906 24.996094 45.253906 C 25.417969 45.253906 25.761719 44.914062 25.761719 44.488281 L 25.761719 41.277344 C 25.761719 40.851562 25.417969 40.511719 24.996094 40.511719 Z M 24.996094 40.511719 "/>
<path style=" stroke:none;fill-rule:nonzero;fill:rgb(100%,4.705882%,21.960784%);fill-opacity:1;" d="M 12.84375 15.894531 L 14.816406 17.53125 C 14.957031 17.648438 15.132812 17.707031 15.304688 17.707031 C 15.523438 17.707031 15.742188 17.613281 15.894531 17.429688 C 16.164062 17.105469 16.117188 16.621094 15.792969 16.351562 L 13.820312 14.71875 C 13.496094 14.445312 13.015625 14.492188 12.746094 14.816406 C 12.472656 15.140625 12.519531 15.625 12.84375 15.894531 Z M 12.84375 15.894531 "/>
<path style=" stroke:none;fill-rule:nonzero;fill:rgb(100%,4.705882%,21.960784%);fill-opacity:1;" d="M 11.648438 31.367188 L 8.820312 32.898438 C 8.449219 33.101562 8.308594 33.5625 8.511719 33.9375 C 8.648438 34.191406 8.914062 34.335938 9.183594 34.335938 C 9.308594 34.335938 9.433594 34.308594 9.546875 34.246094 L 12.375 32.710938 C 12.75 32.511719 12.886719 32.046875 12.683594 31.675781 C 12.484375 31.304688 12.019531 31.164062 11.648438 31.367188 Z M 11.648438 31.367188 "/>
<path style=" stroke:none;fill-rule:nonzero;fill:rgb(100%,4.705882%,21.960784%);fill-opacity:1;" d="M 38.773438 36.246094 L 36.734375 34.425781 C 36.417969 34.144531 35.9375 34.171875 35.65625 34.488281 C 35.375 34.804688 35.402344 35.289062 35.714844 35.570312 L 37.757812 37.386719 C 37.902344 37.515625 38.082031 37.582031 38.265625 37.582031 C 38.476562 37.582031 38.683594 37.496094 38.835938 37.324219 C 39.117188 37.011719 39.089844 36.527344 38.773438 36.246094 Z M 38.773438 36.246094 "/>
<path style=" stroke:none;fill-rule:nonzero;fill:rgb(100%,4.705882%,21.960784%);fill-opacity:1;" d="M 38.519531 28.972656 L 26.753906 24.804688 L 38.675781 17.28125 C 39.03125 17.054688 39.136719 16.582031 38.914062 16.222656 C 38.6875 15.867188 38.214844 15.757812 37.855469 15.984375 L 25.777344 23.613281 L 25.777344 12.195312 C 25.777344 11.769531 25.4375 11.429688 25.011719 11.429688 C 24.589844 11.429688 24.246094 11.769531 24.246094 12.195312 L 24.246094 23.371094 L 17.777344 18 C 17.453125 17.730469 16.96875 17.777344 16.699219 18.101562 C 16.429688 18.425781 16.476562 18.910156 16.800781 19.179688 L 21.183594 22.816406 L 10.800781 19.097656 C 10.40625 18.953125 9.964844 19.160156 9.824219 19.558594 C 9.679688 19.957031 9.886719 20.394531 10.285156 20.539062 L 23.140625 25.144531 L 14.941406 29.585938 C 14.566406 29.785156 14.429688 30.25 14.632812 30.621094 C 14.769531 30.878906 15.03125 31.023438 15.304688 31.023438 C 15.425781 31.023438 15.550781 30.992188 15.667969 30.929688 L 24.226562 26.296875 L 24.230469 38.0625 C 24.230469 38.484375 24.574219 38.828125 24.996094 38.828125 C 25.417969 38.828125 25.761719 38.484375 25.761719 38.0625 L 25.757812 26.6875 L 33.75 33.816406 C 33.894531 33.945312 34.078125 34.007812 34.257812 34.007812 C 34.46875 34.007812 34.679688 33.921875 34.832031 33.753906 C 35.113281 33.4375 35.085938 32.953125 34.769531 32.671875 L 28.433594 27.023438 L 38.011719 30.414062 C 38.09375 30.445312 38.179688 30.460938 38.265625 30.460938 C 38.582031 30.460938 38.875 30.261719 38.988281 29.949219 C 39.128906 29.550781 38.917969 29.113281 38.519531 28.972656 Z M 38.519531 28.972656 "/>
<path style=" stroke:none;fill-rule:nonzero;fill:rgb(100%,4.705882%,21.960784%);fill-opacity:1;" d="M 25.011719 9.386719 C 25.4375 9.386719 25.777344 9.046875 25.777344 8.621094 L 25.777344 5.390625 C 25.777344 4.96875 25.4375 4.625 25.011719 4.625 C 24.589844 4.625 24.246094 4.96875 24.246094 5.390625 L 24.246094 8.621094 C 24.246094 9.046875 24.589844 9.386719 25.011719 9.386719 Z M 25.011719 9.386719 "/>
<path style=" stroke:none;fill-rule:nonzero;fill:rgb(100%,92.156863%,60%);fill-opacity:1;" d="M 30.984375 25 C 30.984375 28.296875 28.308594 30.96875 25.011719 30.96875 C 21.714844 30.96875 19.042969 28.296875 19.042969 25 C 19.042969 21.703125 21.714844 19.03125 25.011719 19.03125 C 28.308594 19.03125 30.984375 21.703125 30.984375 25 Z M 30.984375 25 "/>
<path style=" stroke:none;fill-rule:nonzero;fill:rgb(100%,85.490196%,26.666667%);fill-opacity:1;" d="M 22.070312 25 C 22.070312 22.226562 23.960938 19.894531 26.527344 19.222656 C 26.042969 19.097656 25.535156 19.03125 25.011719 19.03125 C 21.714844 19.03125 19.042969 21.703125 19.042969 25 C 19.042969 28.296875 21.714844 30.96875 25.011719 30.96875 C 25.535156 30.96875 26.042969 30.902344 26.527344 30.777344 C 23.960938 30.105469 22.070312 27.773438 22.070312 25 Z M 22.070312 25 "/>
</g>
</svg>
