<?xml version="1.0" encoding="UTF-8"?>
<svg xmlns="http://www.w3.org/2000/svg" xmlns:xlink="http://www.w3.org/1999/xlink" width="50pt" height="50pt" viewBox="0 0 50 50" version="1.1">
<g id="surface1">
<path style=" stroke:none;fill-rule:nonzero;fill:rgb(95.686275%,82.352941%,96.862745%);fill-opacity:1;" d="M 46.441406 11.5 C 46.417969 11.367188 46.367188 11.238281 46.285156 11.128906 C 46.144531 10.941406 44.804688 9.277344 40.453125 8.515625 L 37.789062 6 C 36.511719 2.476562 33.636719 0.566406 33.511719 0.488281 C 33.460938 0.453125 33.402344 0.425781 33.34375 0.402344 C 33.179688 0.339844 29.367188 -1.046875 25.746094 1.722656 L 9.441406 6.027344 C 5.628906 6.484375 2.996094 9.199219 2.886719 9.3125 C 2.824219 9.378906 2.769531 9.457031 2.730469 9.539062 C 2.660156 9.691406 1 13.253906 2.902344 17.316406 L 2.652344 27.269531 C 1.363281 30.167969 0.832031 33.65625 0.808594 33.808594 C 0.78125 33.992188 0.816406 34.183594 0.90625 34.351562 C 1.183594 34.855469 3.679688 39.222656 6.984375 39.410156 L 21.617188 46.90625 C 24.457031 49.085938 27.679688 49.9375 27.816406 49.972656 C 27.886719 49.992188 27.957031 50 28.03125 50 C 28.082031 50 28.132812 49.996094 28.179688 49.988281 C 29.246094 49.796875 31.640625 48.082031 33.457031 44.988281 L 36.082031 42.863281 C 39.546875 43.050781 42.546875 42.03125 42.675781 41.988281 C 42.792969 41.949219 42.898438 41.882812 42.988281 41.796875 C 43.851562 40.976562 44.964844 38.25 44.761719 34.734375 L 46.757812 18.839844 C 47.074219 15.304688 46.46875 11.652344 46.441406 11.5 Z M 46.441406 11.5 "/>
<path style=" stroke:none;fill-rule:nonzero;fill:rgb(94.117647%,72.156863%,89.803922%);fill-opacity:1;" d="M 41.914062 12.914062 L 32.339844 4.742188 C 26.492188 0.191406 15.921875 0.710938 15.476562 0.730469 C 15.324219 0.742188 15.175781 0.789062 15.050781 0.871094 C 14.6875 1.105469 6.171875 6.738281 5.363281 13.96875 L 4.5625 30.144531 C 4.5625 30.148438 4.5625 30.15625 4.5625 30.164062 C 4.378906 37.484375 11.097656 45.164062 11.386719 45.488281 C 11.492188 45.605469 11.625 45.695312 11.777344 45.742188 C 12.019531 45.816406 15.550781 46.875 19.683594 46.875 C 22.433594 46.875 25.453125 46.40625 27.941406 44.859375 L 38.039062 40.292969 C 44.769531 37.410156 48.953125 28.101562 49.125 27.707031 C 49.1875 27.570312 49.210938 27.417969 49.195312 27.269531 C 49.152344 26.847656 48.039062 16.972656 41.914062 12.914062 Z M 41.914062 12.914062 "/>
<path style=" stroke:none;fill-rule:nonzero;fill:rgb(92.941176%,62.745098%,82.745098%);fill-opacity:1;" d="M 39.507812 29.378906 C 39.367188 29.382812 35.980469 29.566406 29.761719 32.292969 C 23.582031 35.003906 17.984375 39.542969 17.75 39.734375 C 17.445312 39.980469 17.347656 40.402344 17.507812 40.757812 C 19.191406 44.484375 26.277344 45.082031 30.660156 45.082031 C 32.367188 45.082031 33.664062 44.992188 34.070312 44.957031 C 34.285156 44.941406 34.488281 44.84375 34.632812 44.6875 C 34.996094 44.300781 43.429688 35.144531 40.289062 29.800781 C 40.128906 29.527344 39.839844 29.375 39.507812 29.378906 Z M 39.507812 29.378906 "/>
<path style=" stroke:none;fill-rule:nonzero;fill:rgb(92.941176%,62.745098%,82.745098%);fill-opacity:1;" d="M 13.992188 9.121094 C 7.472656 8.65625 1.179688 19.570312 0.914062 20.035156 C 0.8125 20.214844 0.777344 20.421875 0.816406 20.625 C 0.914062 21.144531 3.308594 33.359375 9.472656 33.988281 C 9.5 33.992188 9.53125 33.992188 9.558594 33.992188 C 9.832031 33.992188 10.089844 33.863281 10.253906 33.640625 C 10.355469 33.507812 12.71875 30.246094 13.929688 24.199219 C 15.121094 18.242188 14.808594 10.28125 14.792969 9.945312 C 14.773438 9.507812 14.429688 9.152344 13.992188 9.121094 Z M 13.992188 9.121094 "/>
<path style=" stroke:none;fill-rule:nonzero;fill:rgb(92.941176%,62.745098%,82.745098%);fill-opacity:1;" d="M 39.375 6.71875 C 39.273438 6.53125 39.105469 6.394531 38.90625 6.324219 C 37.683594 5.898438 26.871094 2.289062 24.03125 6.894531 C 23.933594 7.054688 23.890625 7.238281 23.90625 7.425781 C 23.917969 7.5625 24.269531 10.796875 29.183594 15.597656 C 34.058594 20.363281 40.652344 21.546875 40.933594 21.59375 C 40.980469 21.601562 41.03125 21.605469 41.078125 21.605469 C 41.382812 21.605469 41.671875 21.441406 41.828125 21.171875 C 44.640625 16.246094 39.589844 7.105469 39.375 6.71875 Z M 39.375 6.71875 "/>
<path style=" stroke:none;fill-rule:nonzero;fill:rgb(91.372549%,52.156863%,75.294118%);fill-opacity:1;" d="M 19.34375 5.359375 C 19.148438 5.332031 18.941406 5.375 18.765625 5.480469 C 17.820312 6.058594 9.605469 11.285156 11.984375 15.851562 C 12.101562 16.078125 12.3125 16.238281 12.558594 16.292969 C 13.097656 16.414062 16.5 17.15625 19.570312 17.15625 C 21.03125 17.15625 22.417969 16.988281 23.382812 16.507812 C 26.210938 15.089844 29.738281 12.5625 29.886719 12.457031 C 30.09375 12.308594 30.222656 12.074219 30.242188 11.820312 C 30.578125 7.171875 20.496094 5.53125 19.34375 5.359375 Z M 19.34375 5.359375 "/>
<path style=" stroke:none;fill-rule:nonzero;fill:rgb(91.372549%,52.156863%,75.294118%);fill-opacity:1;" d="M 17.738281 28.304688 C 11.753906 25.683594 9.933594 26.382812 9.425781 26.804688 C 9.371094 26.851562 9.320312 26.902344 9.28125 26.960938 C 7.144531 29.914062 10.363281 38.179688 11.027344 39.804688 C 11.140625 40.074219 11.378906 40.269531 11.664062 40.324219 C 13.027344 40.582031 15.945312 41.066406 18.679688 41.066406 C 21.457031 41.066406 24.054688 40.570312 24.652344 38.835938 C 24.6875 38.734375 24.703125 38.625 24.699219 38.515625 C 24.6875 38.21875 24.296875 31.183594 17.738281 28.304688 Z M 17.738281 28.304688 "/>
<path style=" stroke:none;fill-rule:nonzero;fill:rgb(91.372549%,52.156863%,75.294118%);fill-opacity:1;" d="M 43.132812 24.410156 C 42.800781 23.457031 39.734375 15.101562 35.019531 14.597656 C 34.6875 14.5625 34.355469 14.726562 34.183594 15.019531 C 34.015625 15.304688 30.0625 22.121094 31.210938 26.820312 C 32.292969 31.265625 33.179688 33.277344 33.214844 33.359375 C 33.332031 33.621094 33.570312 33.808594 33.851562 33.859375 C 34.152344 33.914062 34.449219 33.9375 34.734375 33.9375 C 40.007812 33.9375 43.003906 25.355469 43.136719 24.972656 C 43.199219 24.789062 43.195312 24.589844 43.132812 24.410156 Z M 43.132812 24.410156 "/>
<path style=" stroke:none;fill-rule:nonzero;fill:rgb(88.235294%,40.784314%,66.27451%);fill-opacity:1;" d="M 21.863281 16.050781 C 21.242188 14.539062 20.21875 13.613281 18.820312 13.300781 C 14.5 12.324219 8.25 17.878906 7.550781 18.511719 C 7.34375 18.699219 7.242188 18.976562 7.273438 19.253906 C 7.40625 20.339844 8.671875 29.921875 13.046875 31.828125 C 13.5625 32.050781 14.089844 32.164062 14.632812 32.164062 C 15.671875 32.164062 16.757812 31.753906 17.878906 30.933594 C 18.039062 30.820312 18.152344 30.652344 18.203125 30.460938 L 21.898438 16.601562 C 21.949219 16.417969 21.9375 16.222656 21.863281 16.050781 Z M 21.863281 16.050781 "/>
<path style=" stroke:none;fill-rule:nonzero;fill:rgb(88.235294%,40.784314%,66.27451%);fill-opacity:1;" d="M 35.875 27.835938 C 35.488281 26.347656 34.3125 25.320312 32.382812 24.789062 C 32.203125 24.738281 32.007812 24.746094 31.835938 24.816406 L 17.972656 30.363281 C 17.746094 30.453125 17.570312 30.636719 17.484375 30.867188 C 16.78125 32.789062 16.921875 34.457031 17.910156 35.828125 C 20.339844 39.207031 27.300781 39.421875 29.027344 39.421875 C 29.234375 39.421875 29.367188 39.417969 29.40625 39.417969 C 29.625 39.410156 29.832031 39.320312 29.988281 39.167969 C 30.707031 38.460938 36.988281 32.113281 35.875 27.835938 Z M 35.875 27.835938 "/>
<path style=" stroke:none;fill-rule:nonzero;fill:rgb(88.235294%,40.784314%,66.27451%);fill-opacity:1;" d="M 34.828125 13.363281 C 34.753906 13.105469 34.5625 12.898438 34.3125 12.800781 C 33.507812 12.492188 26.363281 9.863281 22.90625 12.316406 C 21.671875 13.195312 21.070312 14.570312 21.128906 16.40625 C 21.136719 16.652344 21.25 16.886719 21.445312 17.046875 L 31.609375 25.359375 C 31.765625 25.488281 31.957031 25.554688 32.15625 25.554688 C 32.207031 25.554688 32.261719 25.550781 32.316406 25.539062 C 33.421875 25.332031 34.28125 24.730469 34.871094 23.761719 C 36.890625 20.453125 34.914062 13.648438 34.828125 13.363281 Z M 34.828125 13.363281 "/>
<path style=" stroke:none;fill-rule:nonzero;fill:rgb(82.352941%,32.54902%,59.215686%);fill-opacity:1;" d="M 32.152344 24.691406 C 32.152344 29.140625 28.667969 32.769531 24.28125 33 C 26.167969 32.019531 28.066406 29.933594 28.28125 27.519531 C 28.445312 25.75 27.703125 23.804688 25.375 21.984375 C 24.9375 21.640625 24.609375 21.277344 24.375 20.90625 C 23.175781 19.070312 24.289062 17.070312 25.867188 16.632812 C 29.480469 17.535156 32.152344 20.804688 32.152344 24.691406 Z M 32.152344 24.691406 "/>
<path style=" stroke:none;fill-rule:nonzero;fill:rgb(84.313725%,35.294118%,61.568627%);fill-opacity:1;" d="M 24.375 20.90625 C 22.894531 23.097656 19.472656 21.191406 18.730469 26.792969 C 17.351562 25.835938 16.324219 24.398438 15.824219 22.476562 C 16.789062 18.96875 20.015625 16.382812 23.839844 16.382812 C 24.539062 16.382812 25.21875 16.46875 25.867188 16.632812 C 24.289062 17.070312 23.175781 19.070312 24.375 20.90625 Z M 24.375 20.90625 "/>
<path style=" stroke:none;fill-rule:nonzero;fill:rgb(86.27451%,37.647059%,63.921569%);fill-opacity:1;" d="M 28.28125 27.519531 C 28.066406 29.933594 26.167969 32.019531 24.28125 33 C 24.273438 33 24.273438 33 24.273438 33 C 24.125 33.007812 23.988281 33.007812 23.839844 33.007812 C 19.246094 33.007812 15.523438 29.285156 15.523438 24.691406 C 15.523438 23.925781 15.625 23.183594 15.824219 22.476562 C 16.324219 24.398438 17.351562 25.835938 18.730469 26.792969 C 21.144531 28.484375 24.632812 28.699219 28.28125 27.519531 Z M 28.28125 27.519531 "/>
<path style=" stroke:none;fill-rule:nonzero;fill:rgb(78.823529%,27.843137%,55.294118%);fill-opacity:1;" d="M 28.28125 27.519531 C 24.632812 28.699219 21.144531 28.484375 18.730469 26.792969 C 19.472656 21.191406 22.894531 23.097656 24.375 20.90625 C 24.609375 21.277344 24.9375 21.640625 25.375 21.984375 C 27.703125 23.804688 28.445312 25.75 28.28125 27.519531 Z M 28.28125 27.519531 "/>
</g>
</svg>
