<?xml version="1.0" encoding="UTF-8"?>
<svg xmlns="http://www.w3.org/2000/svg" xmlns:xlink="http://www.w3.org/1999/xlink" width="50pt" height="50pt" viewBox="0 0 50 50" version="1.1">
<g id="surface1">
<path style=" stroke:none;fill-rule:nonzero;fill:rgb(100%,65.098039%,0%);fill-opacity:1;" d="M 49.59375 29.453125 L 44.246094 24.734375 L 49.402344 19.8125 C 49.59375 19.632812 49.671875 19.367188 49.609375 19.113281 C 49.546875 18.859375 49.351562 18.65625 49.101562 18.585938 L 42.234375 16.601562 L 44.769531 9.957031 C 44.863281 9.710938 44.820312 9.4375 44.652344 9.234375 C 44.488281 9.03125 44.226562 8.933594 43.964844 8.976562 L 36.910156 10.113281 L 36.335938 3.027344 C 36.3125 2.765625 36.152344 2.539062 35.917969 2.425781 C 35.679688 2.3125 35.398438 2.335938 35.183594 2.484375 L 29.296875 6.523438 L 25.722656 0.367188 C 25.59375 0.140625 25.347656 0 25.085938 0 C 24.824219 0 24.582031 0.140625 24.449219 0.367188 L 20.347656 7.433594 L 13.246094 3.335938 C 13.019531 3.203125 12.742188 3.203125 12.511719 3.332031 C 12.285156 3.464844 12.144531 3.703125 12.144531 3.964844 L 12.125 11.074219 L 5 10.488281 C 4.738281 10.464844 4.484375 10.585938 4.335938 10.800781 C 4.1875 11.015625 4.164062 11.292969 4.273438 11.527344 L 7.328125 17.957031 L 0.636719 20.464844 C 0.390625 20.558594 0.210938 20.773438 0.167969 21.03125 C 0.125 21.289062 0.226562 21.546875 0.429688 21.714844 L 5.957031 26.222656 L 0.996094 31.339844 C 0.8125 31.527344 0.746094 31.796875 0.820312 32.046875 C 0.890625 32.300781 1.09375 32.492188 1.347656 32.554688 L 8.285156 34.269531 L 6.011719 41.007812 C 5.929688 41.257812 5.984375 41.53125 6.15625 41.726562 C 6.332031 41.921875 6.597656 42.011719 6.855469 41.957031 L 13.863281 40.546875 L 14.714844 47.605469 C 14.746094 47.867188 14.914062 48.089844 15.15625 48.191406 C 15.394531 48.292969 15.675781 48.261719 15.886719 48.105469 L 21.605469 43.84375 L 25.421875 49.660156 C 25.554688 49.871094 25.792969 50 26.042969 50 C 26.050781 50 26.0625 50 26.070312 50 C 26.335938 49.988281 26.570312 49.839844 26.695312 49.609375 L 30.023438 43.515625 L 36.0625 47.320312 C 36.285156 47.460938 36.566406 47.472656 36.796875 47.351562 C 37.03125 47.230469 37.179688 46.996094 37.191406 46.734375 L 37.488281 39.632812 L 44.585938 40.496094 C 44.84375 40.527344 45.101562 40.417969 45.261719 40.207031 C 45.417969 40 45.453125 39.722656 45.351562 39.484375 L 42.554688 32.941406 L 49.335938 30.695312 C 49.585938 30.613281 49.773438 30.402344 49.824219 30.148438 C 49.878906 29.890625 49.789062 29.628906 49.59375 29.453125 Z M 49.59375 29.453125 "/>
<path style=" stroke:none;fill-rule:nonzero;fill:rgb(100%,85.882353%,17.647059%);fill-opacity:1;" d="M 39.980469 24.871094 C 39.980469 16.515625 33.203125 9.742188 24.839844 9.742188 C 16.476562 9.742188 9.695312 16.515625 9.695312 24.871094 C 9.695312 33.230469 16.476562 40.003906 24.839844 40.003906 C 33.203125 40.003906 39.980469 33.230469 39.980469 24.871094 Z M 39.980469 24.871094 "/>
<path style=" stroke:none;fill-rule:nonzero;fill:rgb(100%,79.215686%,0%);fill-opacity:1;" d="M 24.839844 9.742188 C 24.460938 9.742188 24.085938 9.753906 23.710938 9.78125 C 31.550781 10.359375 37.726562 16.894531 37.726562 24.871094 C 37.726562 32.851562 31.550781 39.386719 23.710938 39.960938 C 24.085938 39.988281 24.460938 40.003906 24.839844 40.003906 C 33.203125 40.003906 39.984375 33.230469 39.984375 24.871094 C 39.984375 16.515625 33.203125 9.742188 24.839844 9.742188 Z M 24.839844 9.742188 "/>
</g>
</svg>
